<svg width="14" height="12" viewBox="0 0 14 12" fill="none" xmlns="http://www.w3.org/2000/svg">
<g opacity="0.2">
<path d="M7.61762 0.923453C7.37684 0.706487 7.06423 0.586415 6.74012 0.586415C6.41601 0.586415 6.10339 0.706488 5.86262 0.923453L1.09595 5.46262C0.894181 5.6656 0.780927 5.94017 0.780927 6.22637C0.780927 6.51257 0.894181 6.78714 1.09595 6.99012C1.19666 7.09166 1.31648 7.17225 1.4485 7.22725C1.58051 7.28225 1.72211 7.31057 1.86512 7.31057C2.00813 7.31057 2.14973 7.28225 2.28175 7.22725C2.41376 7.17225 2.53358 7.09166 2.63429 6.99012L6.61012 3.24179C6.65954 3.19837 6.72308 3.17442 6.78887 3.17442C6.85466 3.17442 6.9182 3.19837 6.96762 3.24179L11.4418 7.13095C11.6587 7.32058 11.9421 7.41627 12.2296 7.39697C12.517 7.37767 12.7851 7.24496 12.9747 7.02804C13.1643 6.81111 13.26 6.52774 13.2407 6.24026C13.2214 5.95279 13.0887 5.68475 12.8718 5.49512L7.61762 0.923453Z" fill="black"/>
<path d="M7.28494 8.57994C7.17382 8.4798 7.02953 8.42439 6.87994 8.42439C6.73035 8.42439 6.58607 8.4798 6.47494 8.57994L4.27494 10.6749C4.18182 10.7686 4.12955 10.8954 4.12955 11.0274C4.12955 11.1595 4.18182 11.2863 4.27494 11.3799C4.32142 11.4268 4.37672 11.464 4.43765 11.4894C4.49858 11.5148 4.56394 11.5278 4.62994 11.5278C4.69595 11.5278 4.7613 11.5148 4.82223 11.4894C4.88316 11.464 4.93846 11.4268 4.98494 11.3799L6.81994 9.64994C6.84275 9.6299 6.87208 9.61885 6.90244 9.61885C6.93281 9.61885 6.96213 9.6299 6.98494 9.64994L9.04994 11.4449C9.15006 11.5325 9.28085 11.5766 9.41353 11.5677C9.54621 11.5588 9.66992 11.4976 9.75744 11.3974C9.84496 11.2973 9.88913 11.1665 9.88022 11.0339C9.87131 10.9012 9.81006 10.7775 9.70994 10.6899L7.28494 8.57994Z" fill="black"/>
</g>
</svg>
