<svg width="33" height="35" viewBox="0 0 33 35" fill="none" xmlns="http://www.w3.org/2000/svg">
<path opacity="0.2" d="M32.9104 17.0157C32.9104 26.3637 25.5622 33.9418 16.4975 33.9418C7.4328 33.9418 0.0844727 26.3637 0.0844727 17.0157C0.0844727 7.66781 7.4328 0.0898438 16.4975 0.0898438C25.5621 0.0898438 32.9104 7.66781 32.9104 17.0157Z" fill="#3CC8C8"/>
<path fill-rule="evenodd" clip-rule="evenodd" d="M17.6019 8.63705C17.8224 8.20522 17.3159 7.68235 16.9009 7.90774C16.5634 8.04785 16.4777 8.55683 16.7404 8.81435C16.9884 9.08267 17.4739 8.98907 17.6019 8.63705ZM12.9833 8.82754C13.009 8.54137 12.6899 8.30081 12.4378 8.40889C12.0869 8.50626 12.048 9.08188 12.3884 9.21921C12.6453 9.36686 13.01 9.1382 12.9833 8.82754ZM21.5788 9.22794C21.1849 9.17836 21.1225 8.53323 21.5018 8.40334C21.7959 8.2539 22.0658 8.53413 22.1088 8.82456C22.0471 9.07256 21.8478 9.29963 21.5788 9.22794ZM14.4112 11.0333C14.4761 10.5234 13.8747 10.11 13.4533 10.3876C13.0587 10.5978 13.0044 11.225 13.3625 11.4984C13.7329 11.8464 14.3893 11.5482 14.4112 11.0333ZM19.8865 10.6822C20.0745 10.1775 20.8364 10.1622 21.0504 10.6535C21.2619 11.0359 21.0017 11.5094 20.6248 11.6394C20.1257 11.7365 19.6515 11.1743 19.8865 10.6822ZM17.1345 10.8241C16.7387 10.8536 16.3594 11.1769 16.3635 11.6107C16.3409 11.9652 16.584 12.2548 16.8727 12.4024C16.9017 12.4042 16.931 12.4066 16.9605 12.4091L16.9605 12.4091L16.9605 12.4091L16.9605 12.4091L16.9606 12.4091L16.9606 12.4091L16.9606 12.4091L16.9606 12.4091L16.9606 12.4091L16.9606 12.4091L16.9607 12.4091L16.9607 12.4091L16.9607 12.4091L16.9607 12.4091L16.9607 12.4091L16.9607 12.4091L16.9608 12.4091L16.9608 12.4091L16.9608 12.4091L16.9608 12.4091L16.9608 12.4091L16.9608 12.4091L16.9609 12.4091L16.9609 12.4091C17.1239 12.4226 17.2933 12.4366 17.4401 12.3509C17.8193 12.1762 18.0057 11.6521 17.7958 11.2714C17.6832 10.9954 17.3971 10.8789 17.1345 10.8241ZM9.72615 12.2429C10.1111 11.9964 10.6305 12.4462 10.4847 12.8818C10.4045 13.2586 9.91825 13.4119 9.64029 13.1714C9.34357 12.946 9.39059 12.4041 9.72615 12.2429ZM24.8055 12.7105C24.8444 12.2809 24.3055 11.9779 23.9789 12.2421C23.6437 12.4564 23.6801 13.0287 24.0372 13.1959C24.3614 13.3976 24.8274 13.1022 24.8055 12.7105ZM18.23 13.022C18.769 12.8203 19.4091 13.0616 19.7163 13.5622C20.1216 14.1741 19.906 15.106 19.2771 15.4571C18.6255 15.8724 17.6741 15.5204 17.4334 14.7624C17.1602 14.0838 17.5582 13.2346 18.23 13.022ZM16.7575 13.6779C16.4689 13.0414 15.665 12.795 15.0677 13.0887C14.431 13.3849 14.1381 14.2586 14.468 14.9018C14.7621 15.567 15.6196 15.8395 16.2274 15.48C16.8345 15.1601 17.097 14.2974 16.7575 13.6779ZM11.9013 14.2163C11.9467 13.8154 12.3098 13.5545 12.6761 13.5276C13.0707 13.5771 13.386 13.8964 13.429 14.3125C13.4031 14.7244 13.0975 15.127 12.6785 15.1245C12.2174 15.1659 11.8132 14.6881 11.9013 14.2163ZM22.3633 14.3119C22.3843 13.7455 21.7271 13.3278 21.2538 13.6147C20.7456 13.8643 20.7075 14.6898 21.197 14.9829C21.6683 15.3349 22.3957 14.912 22.3633 14.3119ZM13.7808 15.7298C14.3343 15.5711 14.9673 15.8429 15.2388 16.3729C15.5361 16.9064 15.4146 17.6475 14.9527 18.0388C14.3603 18.6127 13.2678 18.3823 12.9525 17.599C12.5902 16.881 13.0303 15.9188 13.7808 15.7298ZM21.2384 16.2932C20.9491 15.7825 20.3169 15.5665 19.7788 15.7268C19.0227 15.9425 18.6223 16.9418 19.0202 17.6489C19.3484 18.3325 20.2723 18.562 20.8688 18.1249C21.4383 17.7484 21.6208 16.8772 21.2384 16.2932ZM10.2205 16.3932C10.6986 16.2047 11.2287 16.7544 11.035 17.2482C10.9166 17.6981 10.308 17.8644 9.99354 17.5327C9.62563 17.2212 9.76185 16.5282 10.2205 16.3932ZM23.8633 16.3088C23.457 16.3316 23.1672 16.6971 23.181 17.1098C23.2603 17.3022 23.3568 17.5031 23.5448 17.6027C23.9459 17.8331 24.5133 17.4998 24.4833 17.0093C24.5092 16.638 24.1908 16.3628 23.8633 16.3088ZM7.86942 16.6354C8.15709 16.5046 8.51292 16.7643 8.44724 17.0971C8.43181 17.4739 7.89778 17.6188 7.70159 17.3039C7.52825 17.0853 7.63201 16.7481 7.86942 16.6354ZM26.6155 16.8321C26.5353 16.5856 26.2103 16.4776 26.0077 16.6279C25.6706 16.8152 25.8027 17.4635 26.2111 17.4247C26.502 17.4702 26.7516 17.1013 26.6155 16.8321ZM15.3433 18.4366C16.1002 18.2316 16.914 18.8891 16.9187 19.701C16.9681 20.5214 16.1667 21.249 15.3918 21.0595C14.7929 20.959 14.3229 20.358 14.3423 19.7276C14.3407 19.1246 14.7775 18.5641 15.3433 18.4366ZM19.9352 19.7112C19.9474 18.8805 19.1094 18.2112 18.3411 18.4349C17.8856 18.5528 17.4999 18.9439 17.3992 19.4248C17.1999 20.1465 17.7267 20.9636 18.4407 21.0598C19.1993 21.2195 19.9757 20.5165 19.9352 19.7112ZM12.5611 18.9347C13.0927 18.8402 13.5912 19.458 13.3755 19.9839C13.2183 20.5442 12.4354 20.6962 12.0893 20.2385C11.6833 19.799 11.9864 18.9954 12.5611 18.9347ZM22.3721 19.7157C22.4086 19.1797 21.8267 18.7525 21.3526 18.9594C20.7796 19.1491 20.6841 20.0589 21.2091 20.3681C21.6727 20.7125 22.3911 20.3057 22.3721 19.7157ZM23.8099 21.5268C23.6243 21.1664 23.9614 20.6886 24.3456 20.7553C24.5263 20.7522 24.6556 20.8921 24.7726 21.0186L24.793 21.0406L24.7974 21.0772C24.8223 21.2827 24.8507 21.5183 24.6901 21.6736C24.459 21.9784 23.9355 21.8914 23.8099 21.5268ZM10.5196 21.4153C10.6003 20.9781 10.0836 20.6067 9.72453 20.8557C9.3825 21.0372 9.37032 21.6044 9.70092 21.8036C10.009 22.0231 10.4766 21.8021 10.5196 21.4153ZM16.8183 21.6652C17.2883 21.4492 17.8872 21.8754 17.8427 22.4148C17.8775 23.0107 17.1368 23.4234 16.6772 23.0655C16.1667 22.7582 16.2518 21.8542 16.8183 21.6652ZM14.4339 23.0899C14.4704 22.6232 13.9331 22.2442 13.5327 22.4636C13.2507 22.5734 13.1357 22.8976 13.1307 23.1886C13.2271 23.4556 13.4232 23.7365 13.724 23.7432C14.087 23.7998 14.4461 23.4732 14.4339 23.0899ZM20.188 22.4704C20.5997 22.2053 21.1849 22.586 21.1459 23.0852C21.1565 23.6068 20.4952 23.941 20.1119 23.5983C19.7407 23.3297 19.786 22.684 20.188 22.4704ZM21.6752 24.7486C21.3778 24.8144 21.1622 25.1622 21.3454 25.4508C21.5334 25.786 22.0821 25.6661 22.1169 25.2753C22.1672 24.9865 21.9143 24.7992 21.6752 24.7486ZM12.1582 25.2001C12.2311 24.9714 12.4078 24.744 12.6664 24.8035C13.0432 24.8314 13.1551 25.423 12.8252 25.6054C12.5286 25.8137 12.1845 25.5284 12.1582 25.2001ZM17.3604 25.1393C17.0832 24.9596 16.6626 25.1242 16.5905 25.4626C16.4586 25.8045 16.7753 26.2178 17.1262 26.175C17.3151 26.18 17.4609 26.0399 17.5744 25.8998C17.5965 25.8053 17.6189 25.7107 17.6441 25.6162L17.6425 25.6102C17.5959 25.4301 17.5415 25.2203 17.3604 25.1393Z" fill="#3CC8C8"/>
</svg>
