<svg width="34" height="33" viewBox="0 0 34 33" fill="none" xmlns="http://www.w3.org/2000/svg">
<circle opacity="0.2" cx="17.3867" cy="16.5" r="16.5" fill="#315A98"/>
<path d="M13.0164 24.0635L15.1118 20.4477L17.2071 16.8447L19.2897 13.229L19.6347 12.6561L19.788 13.229L20.4268 15.6098L19.7113 16.8447L17.616 20.4477L15.5334 24.0635H18.0376L20.1329 20.4477L21.219 18.5762L21.73 20.4477L22.701 24.0635H24.9497L23.9787 20.4477L23.0077 16.8447L22.7521 15.9153L24.3109 13.229H22.0367L21.96 12.9616L21.1678 10.0079L21.0656 9.62598H18.8808L18.8297 9.70237L16.7855 13.229L14.6901 16.8447L12.6076 20.4477L10.5122 24.0635H13.0164Z" fill="#4779C2"/>
</svg>
