<svg width="111" height="30" viewBox="0 0 111 30" fill="none" xmlns="http://www.w3.org/2000/svg">
<path d="M17.5479 13.7411C17.5205 10.4746 20.2213 8.88701 20.3399 8.81402C18.807 6.58772 16.4347 6.2775 15.6044 6.25013C13.6154 6.04027 11.681 7.44539 10.6682 7.44539C9.63722 7.44539 8.06786 6.2775 6.38901 6.30487C4.22658 6.34137 2.19189 7.59138 1.08787 9.54395C-1.2023 13.513 0.503919 19.3524 2.70284 22.5641C3.80687 24.1335 5.08425 25.8945 6.77222 25.8306C8.41458 25.7667 9.03502 24.7813 11.015 24.7813C12.9858 24.7813 13.5606 25.8306 15.276 25.7941C17.046 25.7667 18.1501 24.2156 19.2176 22.628C20.4859 20.8306 20.9968 19.0513 21.0151 18.9601C20.9694 18.9419 17.5844 17.6462 17.5479 13.7411Z" fill="black"/>
<path d="M14.3088 4.14237C15.1939 3.03835 15.7961 1.53286 15.6318 0C14.3544 0.054745 12.7486 0.885045 11.827 1.97082C11.015 2.92886 10.2851 4.48909 10.4675 5.95809C11.9092 6.06758 13.3873 5.22815 14.3088 4.14237Z" fill="black"/>
<path d="M41.3802 25.6678H39.0809L37.8218 21.7079H33.4422L32.2469 25.6678H30.0115L34.3455 12.1914H37.028L41.3802 25.6678ZM37.4477 20.0473L36.3072 16.5345C36.1886 16.1695 35.9605 15.3301 35.632 13.998H35.5864C35.4495 14.5728 35.2397 15.4214 34.9477 16.5345L33.8254 20.0473H37.4477Z" fill="black"/>
<path d="M52.5208 20.6953C52.5208 22.3468 52.0737 23.6515 51.1704 24.6096C50.3675 25.4672 49.3639 25.887 48.1777 25.887C46.8912 25.887 45.9697 25.4307 45.404 24.5092V29.6096H43.2415V19.1442C43.2415 18.104 43.2142 17.0456 43.1594 15.9507H45.0573L45.1759 17.4927H45.2124C45.9332 16.3339 47.0281 15.75 48.4879 15.75C49.6376 15.75 50.5865 16.2062 51.3529 17.1095C52.1376 18.0219 52.5208 19.2081 52.5208 20.6953ZM50.3219 20.7683C50.3219 19.8194 50.112 19.0438 49.6832 18.4325C49.2179 17.7938 48.5883 17.4745 47.8036 17.4745C47.2744 17.4745 46.7908 17.657 46.3529 18.0037C45.924 18.3595 45.6321 18.8157 45.5043 19.3905C45.4405 19.6551 45.404 19.8741 45.404 20.0475V21.6716C45.404 22.3742 45.623 22.9763 46.0518 23.4599C46.4806 23.9435 47.0463 24.1899 47.7398 24.1899C48.5518 24.1899 49.1814 23.8705 49.6376 23.2501C50.0938 22.6205 50.3219 21.7993 50.3219 20.7683Z" fill="black"/>
<path d="M63.6888 20.6953C63.6888 22.3468 63.2417 23.6515 62.3384 24.6096C61.5355 25.4672 60.5318 25.887 59.3457 25.887C58.0592 25.887 57.1376 25.4307 56.5719 24.5092V29.6096H54.4095V19.1442C54.4095 18.104 54.3821 17.0456 54.3274 15.9507H56.2252L56.3438 17.4927H56.3803C57.1011 16.3339 58.196 15.75 59.6559 15.75C60.8056 15.75 61.7545 16.2062 62.5209 17.1095C63.3056 18.0219 63.6888 19.2081 63.6888 20.6953ZM61.4899 20.7683C61.4899 19.8194 61.28 19.0438 60.8512 18.4325C60.3858 17.7938 59.7563 17.4745 58.9716 17.4745C58.4424 17.4745 57.9588 17.657 57.5209 18.0037C57.092 18.3595 56.8092 18.8157 56.6723 19.3905C56.6084 19.6551 56.5719 19.8741 56.5719 20.0475V21.6716C56.5719 22.3742 56.7909 22.9763 57.2198 23.4599C57.6486 23.9435 58.2143 24.1899 58.9077 24.1899C59.7198 24.1899 60.3585 23.8705 60.8056 23.2501C61.2709 22.6205 61.4899 21.7993 61.4899 20.7683Z" fill="black"/>
<path d="M76.1889 21.8906C76.1889 23.0402 75.7875 23.9709 74.9937 24.6917C74.1177 25.4764 72.8951 25.8687 71.3257 25.8687C69.875 25.8687 68.7162 25.5859 67.8403 25.0293L68.3421 23.2319C69.291 23.7884 70.3312 24.0713 71.4626 24.0713C72.2747 24.0713 72.9133 23.8888 73.3604 23.5238C73.8166 23.1589 74.0447 22.6662 74.0447 22.0548C74.0447 21.5074 73.8531 21.0512 73.4882 20.6771C73.1141 20.303 72.4936 19.9563 71.6268 19.6369C69.2454 18.7519 68.0684 17.4654 68.0684 15.7774C68.0684 14.6734 68.4881 13.7701 69.3184 13.0584C70.1487 12.3558 71.2527 12 72.6305 12C73.8531 12 74.875 12.2099 75.6871 12.6387L75.1396 14.3905C74.3732 13.9799 73.5155 13.7701 72.5484 13.7701C71.7911 13.7701 71.1889 13.9617 70.76 14.3267C70.4042 14.6643 70.2217 15.0657 70.2217 15.5493C70.2217 16.0785 70.4316 16.5256 70.8422 16.8632C71.198 17.1825 71.8549 17.5292 72.8039 17.9033C73.9626 18.3687 74.8112 18.9161 75.3586 19.5457C75.9152 20.1753 76.1889 20.9599 76.1889 21.8906Z" fill="black"/>
<path d="M83.3423 17.5747H80.9609V22.2919C80.9609 23.4872 81.3806 24.0894 82.22 24.0894C82.6032 24.0894 82.9226 24.0529 83.178 23.989L83.2419 25.6314C82.8131 25.7865 82.2565 25.8686 81.5631 25.8686C80.7054 25.8686 80.0484 25.604 79.5649 25.0839C79.0813 24.5638 78.8441 23.6879 78.8441 22.4653V17.5656H77.4298V15.9506H78.8441V14.1714L80.9609 13.5327V15.9506H83.3423V17.5747Z" fill="black"/>
<path d="M94.054 20.7315C94.054 22.2278 93.6252 23.4505 92.7767 24.4085C91.8825 25.3939 90.6964 25.8866 89.2182 25.8866C87.7949 25.8866 86.6543 25.4122 85.8058 24.4724C84.9573 23.5326 84.5375 22.3373 84.5375 20.8957C84.5375 19.3902 84.9755 18.1584 85.8423 17.2004C86.7182 16.2424 87.8952 15.7588 89.3733 15.7588C90.7967 15.7588 91.9464 16.2332 92.8132 17.1822C93.6435 18.0946 94.054 19.2807 94.054 20.7315ZM91.8186 20.7771C91.8186 19.8829 91.627 19.1256 91.2438 18.4869C90.7876 17.7114 90.1398 17.3281 89.3004 17.3281C88.4336 17.3281 87.7675 17.7114 87.3204 18.4869C86.9281 19.1256 86.7456 19.9012 86.7456 20.8227C86.7456 21.7169 86.9372 22.4833 87.3204 23.1129C87.7857 23.8884 88.4427 24.2716 89.2821 24.2716C90.1033 24.2716 90.7511 23.8793 91.2256 23.0946C91.6179 22.4377 91.8186 21.6713 91.8186 20.7771Z" fill="black"/>
<path d="M101.08 17.8486C100.87 17.8121 100.642 17.7938 100.395 17.7938C99.638 17.7938 99.045 18.0767 98.6344 18.6515C98.2785 19.1533 98.096 19.8011 98.096 20.5676V25.668H95.9336V19.0073C95.9336 17.8851 95.9154 16.8631 95.8698 15.9507H97.7493L97.8314 17.8121H97.8953C98.1234 17.1734 98.4793 16.6533 98.972 16.2701C99.4556 15.9234 99.9756 15.75 100.532 15.75C100.733 15.75 100.915 15.7682 101.071 15.7865L101.08 17.8486Z" fill="black"/>
<path d="M110.733 20.3484C110.733 20.7316 110.706 21.0601 110.651 21.3247H104.173C104.2 22.2827 104.51 23.0217 105.113 23.5236C105.66 23.9707 106.363 24.1988 107.229 24.1988C108.187 24.1988 109.063 24.0437 109.848 23.7426L110.186 25.2389C109.264 25.6404 108.178 25.8411 106.928 25.8411C105.423 25.8411 104.237 25.394 103.379 24.509C102.521 23.6239 102.092 22.4287 102.092 20.9414C102.092 19.4816 102.494 18.2589 103.297 17.2826C104.136 16.2425 105.268 15.7224 106.691 15.7224C108.087 15.7224 109.155 16.2425 109.866 17.2826C110.441 18.1221 110.733 19.1349 110.733 20.3484ZM108.671 19.7918C108.689 19.1531 108.543 18.5965 108.251 18.1312C107.877 17.529 107.302 17.2279 106.536 17.2279C105.833 17.2279 105.259 17.5199 104.821 18.1038C104.465 18.5692 104.246 19.1349 104.182 19.7827L108.671 19.7918Z" fill="black"/>
<path d="M30.954 9V2.25H33.033C35.049 2.25 36.408 3.645 36.408 5.607C36.408 7.596 35.049 9 33.033 9H30.954ZM33.033 3.177H31.962V8.073H33.033C34.428 8.073 35.355 7.101 35.355 5.616C35.355 4.14 34.428 3.177 33.033 3.177ZM39.5994 4.446C40.9584 4.446 41.9484 5.427 41.9484 6.759C41.9484 8.1 40.9584 9.081 39.5994 9.081C38.2494 9.081 37.2504 8.1 37.2504 6.759C37.2504 5.427 38.2494 4.446 39.5994 4.446ZM39.5994 5.301C38.7804 5.301 38.2224 5.886 38.2224 6.759C38.2224 7.632 38.7804 8.226 39.5994 8.226C40.4184 8.226 40.9764 7.632 40.9764 6.759C40.9764 5.886 40.4184 5.301 39.5994 5.301ZM42.4579 4.527H43.3849L44.1139 7.911L45.2209 5.715H45.3829L46.4989 7.911L47.1919 4.527H48.1279L47.1469 9H46.1659L45.3019 7.272L44.4199 9H43.4299L42.4579 4.527ZM48.9833 9V4.527H49.8473L49.8833 5.085C50.2253 4.68 50.7023 4.446 51.2693 4.446C52.2233 4.446 53.0243 5.076 53.0243 6.309V9H52.0883V6.435C52.0883 5.688 51.6473 5.31 51.0533 5.31C50.4863 5.31 49.9103 5.634 49.9103 6.498V9H48.9833ZM54.3182 9V2.25H55.2452V9H54.3182ZM58.6453 4.446C60.0043 4.446 60.9943 5.427 60.9943 6.759C60.9943 8.1 60.0043 9.081 58.6453 9.081C57.2953 9.081 56.2963 8.1 56.2963 6.759C56.2963 5.427 57.2953 4.446 58.6453 4.446ZM58.6453 5.301C57.8263 5.301 57.2683 5.886 57.2683 6.759C57.2683 7.632 57.8263 8.226 58.6453 8.226C59.4643 8.226 60.0223 7.632 60.0223 6.759C60.0223 5.886 59.4643 5.301 58.6453 5.301ZM64.7798 9L64.7348 8.262C64.3838 8.775 63.8348 9.081 63.1688 9.081C62.3408 9.081 61.7378 8.604 61.7378 7.794C61.7378 6.903 62.4938 6.543 63.4928 6.309L64.6988 6.03C64.6088 5.481 64.2308 5.238 63.6998 5.238C63.1238 5.238 62.7368 5.481 62.6018 6.012L61.7108 5.85C61.9268 4.995 62.6378 4.446 63.7088 4.446C64.8608 4.446 65.6168 5.067 65.6168 6.264V9H64.7798ZM62.6918 7.731C62.6918 8.091 62.9348 8.298 63.3308 8.298C64.0238 8.298 64.7168 7.812 64.7168 6.858V6.75L63.5198 7.047C63.0068 7.173 62.6918 7.344 62.6918 7.731ZM71.1787 9H70.3057L70.2697 8.379C69.9097 8.82 69.3787 9.081 68.7667 9.081C67.5157 9.081 66.5707 8.1 66.5707 6.759C66.5707 5.427 67.5157 4.446 68.7667 4.446C69.3697 4.446 69.8827 4.698 70.2427 5.112V2.25H71.1787V9ZM68.8927 5.301C68.0917 5.301 67.5427 5.886 67.5427 6.759C67.5427 7.632 68.0917 8.226 68.8927 8.226C69.7027 8.226 70.2427 7.632 70.2427 6.759C70.2427 5.886 69.7027 5.301 68.8927 5.301ZM76.5486 4.446C77.9076 4.446 78.8976 5.427 78.8976 6.759C78.8976 8.1 77.9076 9.081 76.5486 9.081C75.1986 9.081 74.1996 8.1 74.1996 6.759C74.1996 5.427 75.1986 4.446 76.5486 4.446ZM76.5486 5.301C75.7296 5.301 75.1716 5.886 75.1716 6.759C75.1716 7.632 75.7296 8.226 76.5486 8.226C77.3676 8.226 77.9256 7.632 77.9256 6.759C77.9256 5.886 77.3676 5.301 76.5486 5.301ZM79.9471 9V4.527H80.8111L80.8471 5.085C81.1891 4.68 81.6661 4.446 82.2331 4.446C83.1871 4.446 83.9881 5.076 83.9881 6.309V9H83.0521V6.435C83.0521 5.688 82.6111 5.31 82.0171 5.31C81.4501 5.31 80.8741 5.634 80.8741 6.498V9H79.9471ZM86.6206 5.094L88.1326 3.6H88.3576V4.527H89.9686V5.337H88.3576V7.515C88.3576 8.019 88.6006 8.226 89.0506 8.226C89.2576 8.226 89.4736 8.163 89.6986 8.073L89.9146 8.838C89.5906 8.991 89.2306 9.081 88.8616 9.081C87.9616 9.081 87.4306 8.577 87.4306 7.713V5.337H86.6206V5.094ZM90.8016 9V2.25H91.7286V5.049C92.0436 4.689 92.5026 4.446 93.0876 4.446C94.0416 4.446 94.8426 5.076 94.8426 6.309V9H93.9066V6.435C93.9066 5.688 93.4656 5.31 92.8716 5.31C92.3046 5.31 91.7286 5.643 91.7286 6.498V9H90.8016ZM98.1166 9.081C96.6766 9.081 95.7856 8.109 95.7856 6.759C95.7856 5.427 96.7396 4.446 98.0626 4.446C99.3496 4.446 100.25 5.319 100.25 6.588C100.25 6.723 100.232 6.876 100.214 7.02H96.7486C96.8386 7.848 97.3696 8.262 98.1166 8.262C98.7736 8.262 99.1606 7.965 99.3226 7.488L100.214 7.65C99.9706 8.541 99.1966 9.081 98.1166 9.081ZM98.0626 5.229C97.4686 5.229 96.9376 5.58 96.7846 6.273H99.2596C99.1696 5.625 98.7196 5.229 98.0626 5.229Z" fill="black"/>
</svg>
