<svg width="110" height="28" viewBox="0 0 110 28" fill="none" xmlns="http://www.w3.org/2000/svg">
<path fill-rule="evenodd" clip-rule="evenodd" d="M0.47761 1.74532C0.197789 2.04422 0.0369568 2.50426 0.0369568 3.10205V24.3653C0.0369568 24.9631 0.197789 25.4232 0.488071 25.7117L0.56391 25.7754L12.5518 13.8611V13.5933L0.553449 1.68164L0.47761 1.74532Z" fill="url(#paint0_linear_2_128)"/>
<path fill-rule="evenodd" clip-rule="evenodd" d="M16.5399 17.8482L12.5413 13.8728V13.5947L16.5412 9.61938L16.6275 9.67267L21.3583 12.3445C22.7129 13.1035 22.7129 14.3537 21.3583 15.123L16.6275 17.7949C16.6262 17.7949 16.5399 17.8482 16.5399 17.8482Z" fill="url(#paint1_linear_2_128)"/>
<path fill-rule="evenodd" clip-rule="evenodd" d="M16.6261 17.795L12.5413 13.7339L0.47757 25.7236C0.918223 26.194 1.65962 26.2473 2.48862 25.7872L16.6261 17.795Z" fill="url(#paint2_linear_2_128)"/>
<path fill-rule="evenodd" clip-rule="evenodd" d="M16.6261 9.67408L2.48862 1.69223C1.66093 1.22179 0.918223 1.28547 0.47757 1.75591L12.54 13.7339L16.6261 9.67408Z" fill="url(#paint3_linear_2_128)"/>
<path opacity="0.2" fill-rule="evenodd" clip-rule="evenodd" d="M16.5398 17.7092L2.49909 25.6378C1.71454 26.0861 1.01499 26.055 0.563877 25.6482L0.488037 25.7236L0.563877 25.7872C1.01499 26.1927 1.71454 26.2252 2.49909 25.7769L16.6366 17.795L16.5398 17.7092Z" fill="#222222"/>
<path opacity="0.12" fill-rule="evenodd" clip-rule="evenodd" d="M21.357 14.9841L16.5294 17.7092L16.6157 17.795L21.3465 15.1231C22.0238 14.7384 22.3573 14.2368 22.3573 13.7339C22.3141 14.1939 21.9702 14.6319 21.357 14.9841Z" fill="#222222"/>
<path opacity="0.25" fill-rule="evenodd" clip-rule="evenodd" d="M2.48869 1.83134L21.357 12.4851C21.9703 12.8269 22.3142 13.2752 22.3678 13.7352C22.3678 13.2336 22.0343 12.7307 21.357 12.346L2.48869 1.69229C1.13404 0.922956 0.0369873 1.56364 0.0369873 3.10231V3.24136C0.0369873 1.70269 1.13404 1.0724 2.48869 1.83134Z" fill="white"/>
<path fill-rule="evenodd" clip-rule="evenodd" d="M30.0026 18.1794C30.0026 14.7732 32.8832 12 36.3104 12C38.205 12 39.5532 12.7394 40.5704 13.7024L39.3727 14.8928C38.6457 14.2144 37.6598 13.6881 36.3091 13.6881C33.8064 13.6881 31.8502 15.6907 31.8502 18.1781C31.8502 20.6654 33.8064 22.6706 36.3077 22.6706C37.9304 22.6706 38.8536 22.0235 39.4459 21.4335C39.931 20.9513 40.2488 20.2587 40.3717 19.3087H36.3104V17.6245H42.0271C42.0872 17.926 42.1186 18.2872 42.1186 18.6784C42.1186 19.9429 41.7695 21.5114 40.6463 22.6277C39.5532 23.7584 38.1593 24.3613 36.3091 24.3613C32.8806 24.3613 30 21.5907 30 18.182L30.0026 18.1794ZM46.7396 16.4016C44.5259 16.4016 42.7188 18.0754 42.7188 20.3795C42.7188 22.6719 44.5246 24.3574 46.7396 24.3574C48.9546 24.3574 50.7578 22.6693 50.7578 20.3782C50.7578 18.0741 48.9533 16.4003 46.7396 16.4016ZM46.7396 22.7928C45.5275 22.7928 44.4801 21.7986 44.4801 20.3808C44.4801 18.9487 45.5262 17.9688 46.7396 17.9688C47.9517 17.9688 48.9978 18.9474 48.9978 20.3808C48.9978 21.7973 47.953 22.7928 46.7396 22.7928ZM55.5069 16.4016C53.2932 16.4016 51.4887 18.0754 51.4887 20.3795C51.4887 22.6719 53.2932 24.3574 55.5069 24.3574C57.7206 24.3574 59.5251 22.6693 59.5251 20.3782C59.5251 18.0741 57.7219 16.4003 55.5069 16.4016ZM55.5069 22.7928C54.2948 22.7928 53.2474 21.7986 53.2474 20.3808C53.2474 18.9487 54.2935 17.9688 55.5069 17.9688C56.719 17.9688 57.7664 18.9474 57.7664 20.3808C57.7664 21.7973 56.719 22.7928 55.5069 22.7928ZM66.2669 16.6433V17.2905H66.2068C65.8132 16.8213 65.0548 16.4003 64.1003 16.4003C62.0984 16.4003 60.2612 18.1495 60.2612 20.3964C60.2612 22.6251 62.0971 24.36 64.1003 24.36C65.0548 24.36 65.8132 23.939 66.2068 23.4569H66.2669V24.0287C66.2669 25.5504 65.4484 26.3653 64.129 26.3653C63.0516 26.3653 62.3847 25.5959 62.1115 24.95L60.579 25.5829C61.0183 26.6369 62.1873 27.9338 64.1277 27.9338C66.1885 27.9338 67.9328 26.7265 67.9328 23.7882V16.642L66.2669 16.6433ZM64.2507 22.7928C63.0385 22.7928 62.0199 21.7817 62.0199 20.3964C62.0199 18.9955 63.0372 17.9701 64.2507 17.9701C65.4484 17.9701 66.3885 18.9942 66.3885 20.3964C66.3899 21.7817 65.4497 22.7928 64.2507 22.7928ZM69.1475 12.4224H70.9075V24.1183H69.1475V12.4224ZM75.7312 22.7928C74.8368 22.7928 74.1987 22.3847 73.792 21.5881L79.1453 19.3854L78.9609 18.9331C78.6288 18.0455 77.6115 16.4016 75.5337 16.4016C73.4717 16.4016 71.7574 18.0143 71.7574 20.3808C71.7574 22.6095 73.456 24.3587 75.7312 24.3587C77.567 24.3587 78.6288 23.245 79.0681 22.5953L77.703 21.6921C77.2467 22.3561 76.6243 22.7941 75.7312 22.7928ZM75.5939 17.939C76.2908 17.939 76.8818 18.2859 77.0793 18.7824L73.4991 20.26C73.4547 18.7226 74.6982 17.939 75.5939 17.939ZM86.8678 12.4224H82.66V24.1183H84.4161V19.6882H86.8691C88.8161 19.6882 90.7304 18.2872 90.7304 16.0546C90.7304 13.8259 88.8174 12.4237 86.8717 12.4237L86.8678 12.4224ZM86.9136 18.0598H84.4161V14.0494H86.9136C88.2264 14.0494 88.9743 15.1319 88.9743 16.0546C88.9743 16.9617 88.2264 18.0598 86.9136 18.0598ZM93.4541 24.1183V12.4224H91.698V24.1183H93.4541ZM101.343 24.0975V19.6141C101.343 17.5374 99.7814 16.3795 97.7664 16.3795C96.4968 16.3795 95.1801 16.937 94.6348 18.1703L96.1934 18.8162C96.5269 18.1703 97.1467 17.9584 97.7991 17.9584C98.7066 17.9584 99.6298 18.5004 99.6441 19.4646V19.5855C99.3264 19.4049 98.6464 19.1332 97.8122 19.1332C96.132 19.1332 94.4217 20.0507 94.4217 21.7661C94.4217 23.3321 95.7999 24.3393 97.3441 24.3393C98.5262 24.3393 99.176 23.8129 99.584 23.1969H99.6441V24.1001H101.341L101.343 24.0975ZM97.5572 22.7902C96.9819 22.7902 96.1791 22.5043 96.1791 21.7986C96.1791 20.8954 97.1794 20.5472 98.0424 20.5472C98.8151 20.5472 99.1773 20.7122 99.6481 20.9383C99.5134 21.9884 98.6203 22.7772 97.5572 22.7902ZM107.518 16.6355L105.505 21.7051H105.445L103.355 16.6355H101.463L104.596 23.7233L102.808 27.6648H104.64L109.469 16.6355H107.518Z" fill="#222222"/>
<path d="M31.5776 4.616C31.5776 6.11 32.4506 7.154 33.8636 7.154C35.0156 7.154 35.9156 6.461 35.9156 5.444H33.1796V4.544H36.9596V5.039C36.9596 6.866 35.6996 8.081 33.8636 8.081C31.9106 8.081 30.5246 6.605 30.5246 4.616C30.5246 2.636 31.9016 1.169 33.8726 1.169C35.3936 1.169 36.4736 2.006 36.8156 3.221L35.8256 3.5C35.5736 2.636 34.8896 2.096 33.8726 2.096C32.4686 2.096 31.5776 3.14 31.5776 4.616ZM40.112 8.081C38.672 8.081 37.781 7.109 37.781 5.759C37.781 4.427 38.735 3.446 40.058 3.446C41.345 3.446 42.245 4.319 42.245 5.588C42.245 5.723 42.227 5.876 42.209 6.02H38.744C38.834 6.848 39.365 7.262 40.112 7.262C40.769 7.262 41.156 6.965 41.318 6.488L42.209 6.65C41.966 7.541 41.192 8.081 40.112 8.081ZM40.058 4.229C39.464 4.229 38.933 4.58 38.78 5.273H41.255C41.165 4.625 40.715 4.229 40.058 4.229ZM42.6873 4.094L44.1993 2.6H44.4243V3.527H46.0353V4.337H44.4243V6.515C44.4243 7.019 44.6673 7.226 45.1173 7.226C45.3243 7.226 45.5403 7.163 45.7653 7.073L45.9813 7.838C45.6573 7.991 45.2973 8.081 44.9283 8.081C44.0283 8.081 43.4973 7.577 43.4973 6.713V4.337H42.6873V4.094ZM48.7109 2.069C48.7109 1.727 48.9629 1.484 49.3049 1.484C49.6559 1.484 49.9079 1.727 49.9079 2.069C49.9079 2.411 49.6559 2.663 49.3049 2.663C48.9629 2.663 48.7109 2.411 48.7109 2.069ZM48.8459 8V3.527H49.7729V8H48.8459ZM50.536 4.094L52.048 2.6H52.273V3.527H53.884V4.337H52.273V6.515C52.273 7.019 52.516 7.226 52.966 7.226C53.173 7.226 53.389 7.163 53.614 7.073L53.83 7.838C53.506 7.991 53.146 8.081 52.777 8.081C51.877 8.081 51.346 7.577 51.346 6.713V4.337H50.536V4.094ZM58.6925 3.446C60.0515 3.446 61.0415 4.427 61.0415 5.759C61.0415 7.1 60.0515 8.081 58.6925 8.081C57.3425 8.081 56.3435 7.1 56.3435 5.759C56.3435 4.427 57.3425 3.446 58.6925 3.446ZM58.6925 4.301C57.8735 4.301 57.3155 4.886 57.3155 5.759C57.3155 6.632 57.8735 7.226 58.6925 7.226C59.5115 7.226 60.0695 6.632 60.0695 5.759C60.0695 4.886 59.5115 4.301 58.6925 4.301ZM62.091 8V3.527H62.955L62.991 4.085C63.333 3.68 63.81 3.446 64.377 3.446C65.331 3.446 66.132 4.076 66.132 5.309V8H65.196V5.435C65.196 4.688 64.755 4.31 64.161 4.31C63.594 4.31 63.018 4.634 63.018 5.498V8H62.091Z" fill="black"/>
<defs>
<linearGradient id="paint0_linear_2_128" x1="11.4753" y1="2.87349" x2="-7.71141" y2="8.01738" gradientUnits="userSpaceOnUse">
<stop stop-color="#00A0FF"/>
<stop offset="0.007" stop-color="#00A1FF"/>
<stop offset="0.26" stop-color="#00BEFF"/>
<stop offset="0.512" stop-color="#00D2FF"/>
<stop offset="0.76" stop-color="#00DFFF"/>
<stop offset="1" stop-color="#00E3FF"/>
</linearGradient>
<linearGradient id="paint1_linear_2_128" x1="23.121" y1="13.7344" x2="-0.292295" y2="13.7344" gradientUnits="userSpaceOnUse">
<stop stop-color="#FFE000"/>
<stop offset="0.409" stop-color="#FFBD00"/>
<stop offset="0.775" stop-color="#FFA500"/>
<stop offset="1" stop-color="#FF9C00"/>
</linearGradient>
<linearGradient id="paint2_linear_2_128" x1="14.4049" y1="15.9432" x2="-0.871077" y2="41.8124" gradientUnits="userSpaceOnUse">
<stop stop-color="#FF3A44"/>
<stop offset="1" stop-color="#C31162"/>
</linearGradient>
<linearGradient id="paint3_linear_2_128" x1="-2.55916" y1="-5.3277" x2="4.25588" y2="6.22584" gradientUnits="userSpaceOnUse">
<stop stop-color="#32A071"/>
<stop offset="0.069" stop-color="#2DA771"/>
<stop offset="0.476" stop-color="#15CF74"/>
<stop offset="0.801" stop-color="#06E775"/>
<stop offset="1" stop-color="#00F076"/>
</linearGradient>
</defs>
</svg>
