<svg width="34" height="33" viewBox="0 0 34 33" fill="none" xmlns="http://www.w3.org/2000/svg">
<path opacity="0.3" d="M16.9492 33C26.0619 33 33.4492 25.6127 33.4492 16.5C33.4492 7.3873 26.0619 0 16.9492 0C7.83652 0 0.449219 7.3873 0.449219 16.5C0.449219 25.6127 7.83652 33 16.9492 33Z" fill="#2E3148"/>
<path d="M16.9831 2.10449C15.202 2.10449 13.7578 8.56457 13.7578 16.5335C13.7578 24.5025 15.202 30.9626 16.9831 30.9626C18.7642 30.9626 20.2084 24.5025 20.2084 16.5335C20.2084 8.56457 18.7642 2.10449 16.9831 2.10449ZM17.2058 30.1483C17.0021 30.4199 16.7984 30.2161 16.7984 30.2161C15.9782 29.2657 15.5681 27.5001 15.5681 27.5001C14.1334 22.8829 14.4748 12.9693 14.4748 12.9693C15.1491 5.09891 16.3756 3.23969 16.793 2.82693C16.8356 2.7848 16.8918 2.75906 16.9515 2.75423C17.0112 2.7494 17.0708 2.76579 17.1196 2.80053C17.7252 3.22966 18.2331 5.02433 18.2331 5.02433C19.7331 10.5922 19.5972 15.8206 19.5972 15.8206C19.7331 20.37 18.8456 25.4626 18.8456 25.4626C18.1625 29.3328 17.2058 30.1483 17.2058 30.1483Z" fill="#6F7390"/>
<path d="M29.4984 9.35321C28.6116 7.80776 22.29 9.77007 15.3744 13.7356C8.45879 17.7012 3.5806 22.169 4.46672 23.7138C5.35283 25.2586 11.6751 23.2969 18.5907 19.3314C25.5063 15.3658 30.3845 10.898 29.4984 9.35321ZM5.28485 23.5018C4.94535 23.459 5.02204 23.1799 5.02204 23.1799C5.4385 21.9958 6.76378 20.7613 6.76378 20.7613C10.0563 17.219 18.8258 12.5819 18.8258 12.5819C25.9873 9.24999 28.2118 9.39057 28.7761 9.54593C28.834 9.5621 28.8844 9.59825 28.9182 9.64797C28.952 9.69769 28.9671 9.75778 28.9609 9.81759C28.8931 10.5568 27.5859 11.89 27.5859 11.89C23.5055 15.9634 18.9025 18.4479 18.9025 18.4479C15.0239 20.8305 10.165 22.5939 10.165 22.5939C6.46784 23.9261 5.28498 23.5018 5.28498 23.5018H5.28485Z" fill="#6F7390"/>
<path d="M29.4673 23.7658C30.3609 22.2245 25.495 17.7362 18.6037 13.7408C11.7124 9.74546 5.39156 7.75886 4.49871 9.30287C3.60586 10.8469 8.47098 15.3325 15.3663 19.3279C22.2616 23.3232 28.5745 25.31 29.4673 23.7658ZM5.09086 9.89845C4.95886 9.58548 5.23751 9.51011 5.23751 9.51011C6.47118 9.27713 8.20408 9.80803 8.20408 9.80803C12.9185 10.8816 21.3249 16.1473 21.3249 16.1473C27.7972 20.6764 28.7899 22.6713 28.9386 23.2376C28.9538 23.2957 28.9479 23.3572 28.9221 23.4114C28.8962 23.4656 28.8521 23.5089 28.7974 23.5337C28.1225 23.8427 26.3149 23.3823 26.3149 23.3823C20.7436 21.8884 16.2879 19.1514 16.2879 19.1514C12.2845 16.9921 8.32578 13.6697 8.32578 13.6697C5.31777 11.137 5.09178 9.90189 5.09178 9.90189L5.09086 9.89845Z" fill="#6F7390"/>
<path d="M16.9495 18.1968C17.887 18.1968 18.647 17.4368 18.647 16.4993C18.647 15.5618 17.887 14.8018 16.9495 14.8018C16.012 14.8018 15.252 15.5618 15.252 16.4993C15.252 17.4368 16.012 18.1968 16.9495 18.1968Z" fill="#B7B9C8"/>
<path d="M23.9089 10.9999C24.4527 10.9999 24.8935 10.5439 24.8935 9.9814C24.8935 9.41889 24.4527 8.96289 23.9089 8.96289C23.3651 8.96289 22.9243 9.41889 22.9243 9.9814C22.9243 10.5439 23.3651 10.9999 23.9089 10.9999Z" fill="#B7B9C8"/>
<path d="M7.74826 14.4628C8.29203 14.4628 8.73285 14.0068 8.73285 13.4443C8.73285 12.8818 8.29203 12.4258 7.74826 12.4258C7.20449 12.4258 6.76367 12.8818 6.76367 13.4443C6.76367 14.0068 7.20449 14.4628 7.74826 14.4628Z" fill="#B7B9C8"/>
<path d="M14.946 26.9569C15.4898 26.9569 15.9306 26.5009 15.9306 25.9384C15.9306 25.3759 15.4898 24.9199 14.946 24.9199C14.4022 24.9199 13.9614 25.3759 13.9614 25.9384C13.9614 26.5009 14.4022 26.9569 14.946 26.9569Z" fill="#B7B9C8"/>
</svg>
