<svg width="34" height="33" viewBox="0 0 34 33" fill="none" xmlns="http://www.w3.org/2000/svg">
<path d="M26.7017 5.64648H6.29932V24.1898H26.7017V5.64648Z" fill="#E84142"/>
<path fill-rule="evenodd" clip-rule="evenodd" d="M33.022 16.5C33.022 25.6128 25.6298 33 16.511 33C7.39221 33 0 25.6128 0 16.5C0 7.3873 7.39221 0 16.511 0C25.6298 0 33.022 7.3873 33.022 16.5ZM11.8322 23.0662H8.62792C7.9546 23.0662 7.622 23.0662 7.41921 22.9365C7.20017 22.7946 7.06632 22.5595 7.0501 22.3C7.03792 22.061 7.20424 21.7691 7.53683 21.1854L15.4487 7.2489C15.7854 6.6571 15.9557 6.3612 16.1707 6.25176C16.4019 6.13422 16.6777 6.13422 16.9089 6.25176C17.1239 6.3612 17.2942 6.6571 17.6309 7.2489L19.2574 10.0863L19.2657 10.1008C19.6293 10.7357 19.8137 11.0576 19.8942 11.3955C19.9834 11.7644 19.9834 12.1535 19.8942 12.5224C19.8131 12.8629 19.6305 13.1871 19.2614 13.8316L15.1055 21.1732L15.0948 21.192C14.7288 21.8321 14.5433 22.1566 14.2862 22.4013C14.0063 22.6689 13.6697 22.8634 13.3005 22.973C12.9639 23.0662 12.5867 23.0662 11.8322 23.0662ZM19.9242 23.0662H24.5156C25.193 23.0662 25.5338 23.0662 25.7367 22.9326C25.9557 22.7907 26.0935 22.5514 26.1058 22.2921C26.1175 22.0608 25.9548 21.7802 25.636 21.2304C25.625 21.2117 25.614 21.1927 25.6028 21.1733L23.3029 17.2415L23.2767 17.1972C22.9536 16.6511 22.7904 16.3753 22.5809 16.2687C22.3498 16.1511 22.0779 16.1511 21.8468 16.2687C21.6359 16.3781 21.4655 16.6659 21.1289 17.2456L18.8372 21.1774L18.8293 21.1909C18.4938 21.7696 18.3262 22.0588 18.3383 22.2961C18.3545 22.5556 18.4883 22.7946 18.7074 22.9365C18.9061 23.0662 19.2468 23.0662 19.9242 23.0662Z" fill="#674646"/>
</svg>
