<svg width="33" height="33" viewBox="0 0 33 33" fill="none" xmlns="http://www.w3.org/2000/svg">
<path opacity="0.2" d="M16.5 33C25.6127 33 33 25.6127 33 16.5C33 7.3873 25.6127 0 16.5 0C7.3873 0 0 7.3873 0 16.5C0 25.6127 7.3873 33 16.5 33Z" fill="#8DC351"/>
<path d="M21.87 10.8626C21.0698 8.82896 19.0629 8.6454 16.7261 9.09915L15.8939 6.19824L14.1284 6.70459L14.939 9.53021C14.4749 9.66221 14.0026 9.80865 13.5334 9.95302L12.7187 7.10884L10.9542 7.61415L11.7844 10.5151C11.4049 10.6326 11.0316 10.7481 10.6655 10.8533L10.6624 10.843L8.22656 11.5411L8.76797 13.4283C8.76797 13.4283 10.0653 13.0282 10.0498 13.0591C10.7655 12.8539 11.1172 13.2025 11.2873 13.5418L12.2361 16.8459C12.2845 16.8325 12.3495 16.816 12.4258 16.8046L12.2392 16.8583L13.5664 21.4886C13.5994 21.7227 13.5705 22.1197 13.0714 22.2641C13.0992 22.2775 11.7864 22.6312 11.7864 22.6312L12.0412 24.8412L14.3388 24.1812C14.7667 24.0605 15.1896 23.9471 15.6031 23.8306L16.4456 26.7645L18.2091 26.2591L17.3768 23.3562C17.8499 23.2307 18.3215 23.1 18.7917 22.9643L19.6188 25.8549L21.3853 25.3486L20.5459 22.4198C23.4653 21.3978 25.3288 20.0541 24.7874 17.1914C24.3522 14.8876 23.0095 14.1884 21.2079 14.2667C22.0824 13.4521 22.4588 12.3507 21.87 10.8636V10.8626ZM21.1997 17.8441C21.8287 20.0376 18.0028 20.8647 16.8066 21.2091L15.6918 17.3213C16.888 16.9779 20.5428 15.5579 21.1987 17.8452L21.1997 17.8441ZM18.8051 12.5951C19.3764 14.5906 16.1785 15.2557 15.1813 15.5414L14.1707 12.0155C15.1669 11.7299 18.208 10.5151 18.8051 12.5961V12.5951Z" fill="#8DC351"/>
</svg>
