<svg width="33" height="33" viewBox="0 0 33 33" fill="none" xmlns="http://www.w3.org/2000/svg">
<path opacity="0.2" d="M16.5 33C25.6127 33 33 25.6127 33 16.5C33 7.3873 25.6127 0 16.5 0C7.3873 0 0 7.3873 0 16.5C0 25.6127 7.3873 33 16.5 33Z" fill="#F3BA2F"/>
<path fill-rule="evenodd" clip-rule="evenodd" d="M13.0503 15.0817L16.5016 11.6319L19.9542 15.0845L21.9612 13.0761L16.5016 7.61523L11.0419 13.0747L13.0503 15.0817ZM7.61523 16.5001L9.62292 14.4925L11.6306 16.5001L9.62292 18.5078L7.61523 16.5001ZM16.5015 21.3692L13.0503 17.918L11.0391 19.9236L11.0419 19.9264L16.5015 25.3845L21.9612 19.9236L21.9626 19.9222L19.9542 17.9166L16.5015 21.3692ZM21.3691 16.5006L23.3768 14.493L25.3845 16.5006L23.3768 18.5083L21.3691 16.5006ZM16.5015 14.4613L18.538 16.4991H18.5394L18.538 16.5006L16.5015 18.5384L14.4651 16.5034L14.4623 16.4991L14.4651 16.4963L14.8216 16.1399L14.9956 15.9672L16.5015 14.4613Z" fill="#F3BA2F"/>
</svg>
