<svg width="33" height="33" viewBox="0 0 33 33" fill="none" xmlns="http://www.w3.org/2000/svg">
<path opacity="0.2" d="M32.5052 20.4918C30.3014 29.3311 21.3481 34.7101 12.5077 32.5063C3.67142 30.3026 -1.70809 21.3492 0.496205 12.5104C2.69895 3.67001 11.6518 -1.71002 20.4896 0.49376C29.3294 2.69754 34.7084 11.6519 32.5047 20.4918H32.5052Z" fill="#F7931A"/>
<path fill-rule="evenodd" clip-rule="evenodd" d="M21.4695 14.5832C21.692 13.0938 20.5579 12.2931 19.0073 11.759L19.5103 9.74141L18.2818 9.43534L17.7921 11.3998C17.4696 11.3193 17.138 11.2434 16.8085 11.1682L17.3017 9.19083L16.0743 8.88477L15.5709 10.9017C15.3037 10.8408 15.0414 10.7806 14.7867 10.7173L14.7881 10.711L13.0944 10.2881L12.7677 11.5999C12.7677 11.5999 13.6789 11.8087 13.6597 11.8216C14.1571 11.9458 14.2473 12.275 14.2319 12.5359L13.659 14.8344C13.6933 14.8431 13.7377 14.8557 13.7866 14.8753L13.6572 14.8431L12.8537 18.063C12.7929 18.2141 12.6386 18.4407 12.2909 18.3547C12.3032 18.3725 11.3983 18.1319 11.3983 18.1319L10.7886 19.538L12.3871 19.9365C12.5676 19.9817 12.7459 20.0282 12.9222 20.0742C13.0364 20.104 13.1497 20.1336 13.2623 20.1624L12.7541 22.2035L13.9808 22.5095L14.4845 20.4905C14.8192 20.5815 15.1445 20.6654 15.4629 20.7445L14.9612 22.754L16.1894 23.0601L16.6976 21.0233C18.7918 21.4196 20.3669 21.2597 21.0291 19.3659C21.5632 17.8409 21.0029 16.9611 19.901 16.3871C20.7034 16.2014 21.3079 15.6735 21.4691 14.5832H21.4695ZM18.6631 18.5181C18.3145 19.9178 16.123 19.3386 15.1212 19.0739C15.0315 19.0502 14.9513 19.029 14.8829 19.012L15.5573 16.3084C15.641 16.3293 15.7432 16.3522 15.859 16.3782L15.859 16.3782C16.8954 16.6108 19.0193 17.0874 18.6635 18.5181H18.6631ZM16.0673 15.1237C16.9032 15.3467 18.7252 15.8328 19.0426 14.5612C19.3671 13.2603 17.5954 12.8683 16.7301 12.6768C16.6328 12.6553 16.547 12.6363 16.4769 12.6188L15.8655 15.0708C15.9233 15.0853 15.9912 15.1034 16.0673 15.1237Z" fill="#F7931A"/>
</svg>
