<svg width="34" height="33" viewBox="0 0 34 33" fill="none" xmlns="http://www.w3.org/2000/svg">
<path opacity="0.2" d="M17.3203 0C26.4338 0 33.8203 7.38795 33.8203 16.5C33.8203 25.6135 26.4338 33 17.3203 33C8.20826 33 0.820312 25.6128 0.820312 16.5C0.820312 7.38795 8.20826 0 17.3203 0Z" fill="#F5AC37"/>
<path d="M17.9288 17.6649H24.1986C24.3322 17.6649 24.3953 17.6649 24.405 17.4897C24.4562 16.8518 24.4562 16.2103 24.405 15.5718C24.405 15.4478 24.3433 15.3965 24.2089 15.3965H11.7311C11.5767 15.3965 11.5351 15.4478 11.5351 15.5925V17.428C11.5351 17.6649 11.5351 17.6649 11.7823 17.6649H17.9288ZM23.7048 13.2514C23.7226 13.2046 23.7226 13.1534 23.7048 13.1074C23.6001 12.8794 23.4761 12.6619 23.332 12.4577C23.1152 12.1087 22.8598 11.7872 22.5687 11.4984C22.4314 11.3239 22.2725 11.1672 22.0943 11.0343C21.2018 10.2747 20.1408 9.73713 19.0003 9.46686C18.4248 9.33767 17.8368 9.27604 17.2472 9.28123H11.7096C11.5551 9.28123 11.5343 9.34286 11.5343 9.47726V13.1378C11.5343 13.2923 11.5343 13.3338 11.7304 13.3338H23.6305C23.6305 13.3338 23.7337 13.3131 23.7545 13.2514H23.704H23.7048ZM23.7048 19.81C23.5296 19.7907 23.3528 19.7907 23.1776 19.81H11.7415C11.5871 19.81 11.5351 19.81 11.5351 20.0164V23.5953C11.5351 23.7601 11.5351 23.8017 11.7415 23.8017H17.0215C17.2739 23.821 17.5264 23.8032 17.7736 23.7505C18.5399 23.6955 19.2935 23.5292 20.0123 23.2552C20.2737 23.1646 20.5261 23.0466 20.7645 22.9048H20.8365C22.0742 22.261 23.0796 21.2497 23.7137 20.0082C23.7137 20.0082 23.7857 19.8523 23.7048 19.8115V19.81ZM9.46275 25.6572V25.5956V23.1929V22.3783V19.9548C9.46275 19.8204 9.46275 19.8003 9.29791 19.8003H7.06C6.936 19.8003 6.88477 19.8003 6.88477 19.6355V17.676H9.27712C9.41078 17.676 9.46275 17.676 9.46275 17.5008V15.5621C9.46275 15.4381 9.46275 15.4077 9.29791 15.4077H7.06C6.936 15.4077 6.88477 15.4077 6.88477 15.2428V13.4281C6.88477 13.3145 6.88477 13.2841 7.0496 13.2841H9.26673C9.42117 13.2841 9.46275 13.2841 9.46275 13.0881V7.52966C9.46275 7.36482 9.46275 7.32324 9.66917 7.32324H17.4031C17.9645 7.34552 18.5221 7.40715 19.0738 7.50887C20.2105 7.719 21.3028 8.12515 22.3014 8.70505C22.9638 9.09487 23.5734 9.56562 24.1161 10.1076C24.5245 10.5316 24.8928 10.9905 25.2195 11.4791C25.544 11.9743 25.8135 12.5037 26.0251 13.0569C26.0511 13.2009 26.1892 13.2982 26.3333 13.2737H28.1791C28.416 13.2737 28.416 13.2737 28.4264 13.5009V15.1923C28.4264 15.3572 28.3648 15.3988 28.1992 15.3988H26.7758C26.6318 15.3988 26.5902 15.3988 26.6006 15.5844C26.657 16.2125 26.657 16.8429 26.6006 17.4711C26.6006 17.6463 26.6006 17.6671 26.7973 17.6671H28.4256C28.4977 17.7599 28.4256 17.8527 28.4256 17.9463C28.436 18.0658 28.436 18.1869 28.4256 18.3064V19.5546C28.4256 19.7298 28.3744 19.7818 28.2192 19.7818H26.2702C26.1343 19.7558 26.0021 19.8427 25.9709 19.9778C25.5069 21.1844 24.7643 22.2662 23.805 23.1335C23.4546 23.449 23.0863 23.746 22.7017 24.02C22.2888 24.2576 21.8871 24.5049 21.4639 24.7009C20.685 25.0514 19.8683 25.3097 19.03 25.4738C18.234 25.6164 17.4269 25.681 16.6168 25.6699H9.45978V25.6595L9.46275 25.6572Z" fill="#F5AC37"/>
</svg>
