<svg width="33" height="35" viewBox="0 0 33 35" fill="none" xmlns="http://www.w3.org/2000/svg">
<path opacity="0.2" d="M16.5 34.0312C25.6127 34.0312 33 26.4131 33 17.0156C33 7.61816 25.6127 0 16.5 0C7.3873 0 0 7.61816 0 17.0156C0 26.4131 7.3873 34.0312 16.5 34.0312Z" fill="#32A4BE"/>
<path opacity="0.2" d="M16.5 34.0312C25.6127 34.0312 33 26.4131 33 17.0156C33 7.61816 25.6127 0 16.5 0C7.3873 0 0 7.61816 0 17.0156C0 26.4131 7.3873 34.0312 16.5 34.0312Z" fill="#C2A633"/>
<mask id="mask0_3547_3565" style="mask-type:alpha" maskUnits="userSpaceOnUse" x="0" y="0" width="33" height="35">
<path d="M16.5 34.0312C25.6127 34.0312 33 26.4131 33 17.0156C33 7.61816 25.6127 0 16.5 0C7.3873 0 0 7.61816 0 17.0156C0 26.4131 7.3873 34.0312 16.5 34.0312Z" fill="white"/>
</mask>
<g mask="url(#mask0_3547_3565)">
<path fill-rule="evenodd" clip-rule="evenodd" d="M16.7728 10.1904H12.2676V16.3609H9.51904V18.4178H12.2676V24.5883H16.7728C19.1507 24.5883 19.6631 24.3315 20.6879 23.8178C20.7675 23.7779 20.8501 23.7365 20.937 23.6935C22.1425 23.0971 23.0793 22.2572 23.7475 21.1739C24.4157 20.0907 24.7498 18.8291 24.7498 17.3893C24.7498 15.9496 24.4157 14.688 23.7475 13.6048C23.0793 12.5215 22.1425 11.6816 20.937 11.0852C19.7314 10.4887 18.3434 10.1904 16.7728 10.1904ZM15.6155 18.4178V21.8527H16.6074C18.0541 21.8527 19.2079 21.4516 20.069 20.6494C20.9301 19.8473 21.3606 18.7606 21.3606 17.3893C21.3606 16.0181 20.9301 14.9314 20.069 14.1293C19.2079 13.3271 18.0541 12.926 16.6074 12.926H15.6155V16.3609H18.8187V18.4178H15.6155Z" fill="#C2A633"/>
</g>
</svg>
