<svg width="33" height="33" viewBox="0 0 33 33" fill="none" xmlns="http://www.w3.org/2000/svg">
<circle opacity="0.2" cx="16.5" cy="16.5" r="16.5" fill="#E6007A"/>
<path d="M16.2471 10.8474C18.1618 10.8474 19.7139 9.95813 19.7139 8.86119C19.7139 7.76425 18.1618 6.875 16.2471 6.875C14.3324 6.875 12.7803 7.76425 12.7803 8.86119C12.7803 9.95813 14.3324 10.8474 16.2471 10.8474Z" fill="#E6007A"/>
<path d="M16.2471 25.8132C18.1618 25.8132 19.7139 24.924 19.7139 23.827C19.7139 22.7301 18.1618 21.8408 16.2471 21.8408C14.3324 21.8408 12.7803 22.7301 12.7803 23.827C12.7803 24.924 14.3324 25.8132 16.2471 25.8132Z" fill="#E6007A"/>
<path d="M11.4155 13.5965C12.3728 11.9631 12.3666 10.1941 11.4016 9.64528C10.4366 9.09644 8.87824 9.97561 7.92091 11.609C6.96357 13.2423 6.96979 15.0113 7.93479 15.5602C8.89979 16.109 10.4581 15.2298 11.4155 13.5965Z" fill="#E6007A"/>
<path d="M24.5713 21.0795C25.5287 19.4462 25.523 17.6775 24.5586 17.129C23.5943 16.5805 22.0364 17.46 21.0791 19.0933C20.1218 20.7267 20.1275 22.4954 21.0918 23.0439C22.0562 23.5923 23.614 22.7129 24.5713 21.0795Z" fill="#E6007A"/>
<path d="M11.4021 23.0432C12.3671 22.4944 12.3733 20.7253 11.416 19.092C10.4586 17.4586 8.90027 16.5795 7.93527 17.1283C6.97027 17.6771 6.96406 19.4462 7.9214 21.0795C8.87873 22.7129 10.4371 23.592 11.4021 23.0432Z" fill="#E6007A"/>
<path d="M24.5591 15.5614C25.5235 15.013 25.5291 13.2443 24.5718 11.6109C23.6145 9.97755 22.0566 9.09808 21.0923 9.64655C20.1279 10.195 20.1223 11.9637 21.0796 13.5971C22.0369 15.2304 23.5948 16.1099 24.5591 15.5614Z" fill="#E6007A"/>
</svg>
