<svg width="33" height="35" viewBox="0 0 33 35" fill="none" xmlns="http://www.w3.org/2000/svg">
<path opacity="0.1" d="M16.5 34.0312C25.6127 34.0312 33 26.4131 33 17.0156C33 7.61816 25.6127 0 16.5 0C7.3873 0 0 7.61816 0 17.0156C0 26.4131 7.3873 34.0312 16.5 34.0312Z" fill="#3AB83A"/>
<mask id="mask0_3547_3570" style="mask-type:alpha" maskUnits="userSpaceOnUse" x="0" y="0" width="33" height="35">
<path d="M16.5 34.0312C25.6127 34.0312 33 26.4131 33 17.0156C33 7.61816 25.6127 0 16.5 0C7.3873 0 0 7.61816 0 17.0156C0 26.4131 7.3873 34.0312 16.5 34.0312Z" fill="white"/>
</mask>
<g mask="url(#mask0_3547_3570)">
<path fill-rule="evenodd" clip-rule="evenodd" d="M12.6924 16.1336L17.1529 13.1435L21.577 16.1522L17.1335 7.85352L12.6924 16.1336ZM12.8625 16.9972L17.1578 14.0783L21.3971 16.9755L17.1602 19.8976L12.8625 16.9972ZM12.6924 17.8329C14.2578 18.8916 15.8913 19.9997 17.1529 20.8571L21.577 17.8329C19.9751 20.8633 18.6406 23.386 17.1529 26.178L16.2405 24.4725L16.2402 24.4719C15.0148 22.1814 13.7511 19.8194 12.6924 17.8329Z" fill="#3AB83A"/>
<path fill-rule="evenodd" clip-rule="evenodd" d="M17.1348 7.85352L17.1514 13.1435L21.5771 16.1522L17.1348 7.85352ZM17.1556 14.0783L21.4229 16.9755L17.1577 19.8976L17.1556 14.0783ZM17.1514 20.8571L21.5771 17.8329C20.2044 20.8633 17.1514 26.178 17.1514 26.178V20.8571Z" fill="#0B8311"/>
</g>
</svg>
