<svg width="33" height="35" viewBox="0 0 33 35" fill="none" xmlns="http://www.w3.org/2000/svg">
<path opacity="0.2" d="M16.5 34.0312C25.6127 34.0312 33 26.4131 33 17.0156C33 7.61816 25.6127 0 16.5 0C7.3873 0 0 7.61816 0 17.0156C0 26.4131 7.3873 34.0312 16.5 34.0312Z" fill="#00EF8B"/>
<path d="M23.7272 14.3613H19.0742V19.1597H23.7272V14.3613Z" fill="#00EF8B"/>
<path d="M14.421 20.9634C14.421 21.9503 13.629 22.767 12.672 22.767C11.715 22.767 10.923 21.9503 10.923 20.9634C10.923 19.9765 11.715 19.1597 12.672 19.1597H14.421V14.3613H12.672C9.14102 14.3613 6.27002 17.322 6.27002 20.9634C6.27002 24.6047 9.14102 27.5655 12.672 27.5655C16.203 27.5655 19.074 24.6047 19.074 20.9634V19.1597H14.421V20.9634Z" fill="#00EF8B"/>
<path d="M20.8229 11.9449H26.0699V7.14648H20.8229C17.2919 7.14648 14.4209 10.1072 14.4209 13.7485V14.3611H19.0739V13.7485C19.0739 12.7616 19.8659 11.9449 20.8229 11.9449Z" fill="#00EF8B"/>
<path d="M19.0739 14.3613H14.4209V19.1597H19.0739V14.3613Z" fill="#396955"/>
</svg>
