<svg width="14" height="14" viewBox="0 0 14 14" fill="none" xmlns="http://www.w3.org/2000/svg">
<path d="M9.92 7.872V3.97374C9.92 3.4934 9.53061 3.104 9.05026 3.104H8.48884C8.35697 3.104 8.24686 3.20455 8.23492 3.33588C8.2122 3.58583 7.83981 3.67846 7.65345 3.51034C7.27992 3.17334 6.7972 2.976 6.192 2.976C4.144 2.976 3.008 4.624 3.008 6.672C3.008 8.688 4.144 10.272 6.144 10.272C6.20883 10.272 6.27234 10.2699 6.33453 10.2659C7.30215 10.2028 9.25433 10.144 10.224 10.144C12.288 10.144 13.344 8.368 13.344 6.304C13.344 2.656 10.512 0 6.656 0C2.768 0 0 2.784 0 6.624C0 10.368 2.56 13.136 6.352 13.136C7.28868 13.136 8.23625 12.9728 9.11396 12.6375C9.43032 12.5167 9.57 12.1569 9.44786 11.841C9.31322 11.4928 8.91374 11.331 8.55799 11.4442C7.88437 11.6586 7.14504 11.776 6.496 11.776C3.52 11.776 1.424 9.6 1.424 6.624C1.424 3.52 3.584 1.328 6.656 1.328C9.68 1.328 11.92 3.44 11.92 6.32C11.92 7.856 11.488 8.704 10.72 8.704C10.272 8.704 9.92 8.32 9.92 7.872ZM8.08 6.656C8.08 7.76 7.472 8.576 6.48 8.576C5.456 8.576 4.896 7.744 4.896 6.656C4.896 5.568 5.456 4.688 6.48 4.688C7.488 4.688 8.08 5.536 8.08 6.656Z" fill="#F12A23"/>
</svg>
