<svg width="34" height="33" viewBox="0 0 34 33" fill="none" xmlns="http://www.w3.org/2000/svg">
<circle opacity="0.2" cx="16.9375" cy="16.5" r="16.5" fill="#02A6C2"/>
<path d="M13.437 9.62689C17.4533 9.62567 21.4699 9.62567 25.4867 9.62689C25.4879 10.9098 25.4879 12.1925 25.4867 13.475C21.4703 13.4762 17.4537 13.4762 13.437 13.475C13.4357 12.1921 13.4357 10.9094 13.437 9.62689Z" fill="#02A6C2"/>
<path d="M8.69254 14.9229C9.9883 14.9163 11.2843 14.9163 12.5805 14.9229C12.5872 16.2034 12.5872 17.4842 12.5805 18.7651C11.2843 18.7717 9.98836 18.7718 8.69254 18.7654C8.68582 17.4847 8.68582 16.2039 8.69254 14.9229Z" fill="#5FCADE"/>
<path d="M13.4401 14.9235C16.339 14.9174 19.2377 14.9174 22.1362 14.9235C22.1424 16.204 22.1424 17.4847 22.1362 18.7657C19.2374 18.7716 16.3387 18.7716 13.4401 18.7657C13.434 17.4851 13.434 16.2044 13.4401 14.9235Z" fill="#5FCADE"/>
<path d="M13.4437 20.2194C14.7372 20.2055 16.0306 20.2055 17.3237 20.2194C17.3372 21.4969 17.3374 22.775 17.3243 24.0538C16.0307 24.0664 14.7374 24.0661 13.4443 24.0531C13.4309 22.7757 13.4307 21.4978 13.4437 20.2194Z" fill="#ABEBF4"/>
</svg>
