<svg width="34" height="33" viewBox="0 0 34 33" fill="none" xmlns="http://www.w3.org/2000/svg">
<path d="M15.0607 17.3975L6.31885 26.6775" stroke="#222222" stroke-width="2" stroke-linecap="round" stroke-linejoin="round"/>
<path d="M10.6826 23.7588L17.9553 31.0606" stroke="#222222" stroke-width="2" stroke-linecap="round" stroke-linejoin="round"/>
<path d="M13.1069 19.8608L22.8039 29.6014" stroke="#222222" stroke-width="2" stroke-linecap="round" stroke-linejoin="round"/>
<path d="M17.4702 17.9165L26.1975 26.6777" stroke="#222222" stroke-width="2" stroke-linecap="round" stroke-linejoin="round"/>
<path d="M23.7734 17.9165L29.5916 23.7589" stroke="#222222" stroke-width="2" stroke-linecap="round" stroke-linejoin="round"/>
<path d="M15.0606 1.48486V15.9382C15.0576 16.4621 15.2582 16.9667 15.62 17.3457C15.9817 17.7246 16.4765 17.9484 17 17.9697H31.5454" stroke="#222222" stroke-width="2" stroke-linecap="round" stroke-linejoin="round"/>
<path d="M18.9395 1.48486V14.0909H31.5455" stroke="#F12A23" stroke-width="2" stroke-linecap="round" stroke-linejoin="round"/>
<path d="M3.99639 23.5647C2.95114 21.8235 2.26224 19.892 1.96973 17.8823" stroke="#222222" stroke-width="2" stroke-linecap="round" stroke-linejoin="round"/>
<path d="M32.0303 17.9697C31.5329 21.6009 29.7357 24.9286 26.9718 27.3358C24.208 29.743 20.6651 31.0664 17 31.0606C13.1482 31.0635 9.44375 29.5803 6.6582 26.92" stroke="#222222" stroke-width="2" stroke-linecap="round" stroke-linejoin="round"/>
<path d="M18.9395 1C21.7247 1.37055 24.3508 2.51269 26.5211 4.29737C28.6913 6.08205 30.3192 8.43814 31.2207 11.0994C31.586 12.04 31.8572 13.0144 32.0304 14.0085" stroke="#F12A23" stroke-width="2" stroke-linecap="round" stroke-linejoin="round"/>
<path d="M1.96973 13.9891C2.41862 10.6853 3.9447 7.6219 6.31146 5.27355C8.67822 2.9252 11.7535 1.42308 15.0606 1" stroke="#222222" stroke-width="2" stroke-linecap="round" stroke-linejoin="round"/>
</svg>
