<svg width="34" height="30" viewBox="0 0 34 30" fill="none" xmlns="http://www.w3.org/2000/svg">
<path d="M22.0815 14.4483V28.931H31.1927C32.3546 28.931 32.5965 28.2017 32.5965 27.0586V3.06897C32.5965 2.52024 32.3749 1.99399 31.9805 1.60599C31.5861 1.21798 31.0512 1 30.4935 1H24.1845C23.6268 1 23.0919 1.21798 22.6975 1.60599C22.3031 1.99399 22.0815 2.52024 22.0815 3.06897V10.3103" stroke="#222222" stroke-width="2" stroke-linecap="round" stroke-linejoin="round"/>
<path d="M11.5669 28.9309H22.0818V11.3447" stroke="#222222" stroke-width="2" stroke-linecap="round" stroke-linejoin="round"/>
<path d="M22.0818 10.3105H13.6699C13.1121 10.3105 12.5772 10.5285 12.1828 10.9165C11.7885 11.3045 11.5669 11.8308 11.5669 12.3795V15.483" stroke="#222222" stroke-width="2" stroke-linecap="round" stroke-linejoin="round"/>
<path d="M1.05176 21.6896C1.05176 21.1408 1.27332 20.6146 1.66771 20.2266C2.06209 19.8386 2.597 19.6206 3.15474 19.6206H11.5667V28.931H3.15474C2.88968 28.953 2.62286 28.9211 2.37084 28.8374C2.11882 28.7537 1.88699 28.6198 1.68977 28.4442C1.49254 28.2686 1.33413 28.055 1.22437 27.8166C1.11462 27.5782 1.05586 27.3202 1.05176 27.0585V21.6896Z" stroke="#222222" stroke-width="2" stroke-linecap="round" stroke-linejoin="round"/>
<path d="M12.0926 1L1.57764 11.3448" stroke="#F12A23" stroke-width="2" stroke-linecap="round" stroke-linejoin="round"/>
<path d="M7.88623 1H12.0922" stroke="#F12A23" stroke-width="2" stroke-linecap="round" stroke-linejoin="round"/>
<path d="M12.0923 5.13793V1" stroke="#F12A23" stroke-width="2" stroke-linecap="round" stroke-linejoin="round"/>
<path d="M22.6074 16.7139L32.9488 26.8621" stroke="#222222" stroke-width="2" stroke-linecap="round" stroke-linejoin="round"/>
<path d="M22.6074 23.438L28.2171 28.9311" stroke="#222222" stroke-width="2" stroke-linecap="round" stroke-linejoin="round"/>
<path d="M22.6074 9.98975L32.9488 20.138" stroke="#222222" stroke-width="2" stroke-linecap="round" stroke-linejoin="round"/>
<path d="M22.6074 3.26562L32.9488 13.4139" stroke="#222222" stroke-width="2" stroke-linecap="round" stroke-linejoin="round"/>
<path d="M27.3389 1.19678L32.9486 6.68988" stroke="#222222" stroke-width="2" stroke-linecap="round" stroke-linejoin="round"/>
</svg>
