<svg width="37" height="31" viewBox="0 0 37 31" fill="none" xmlns="http://www.w3.org/2000/svg">
<path d="M6.28379 17.9455C5.67499 15.458 5.8057 12.8435 6.65945 10.4312C7.51321 8.01891 9.05183 5.91678 11.0815 4.38958C13.1112 2.86239 15.5411 1.97844 18.0653 1.84908C20.5894 1.71971 23.0949 2.35072 25.2661 3.66261C27.4372 4.97451 29.177 6.90862 30.2663 9.22132C31.3555 11.534 31.7455 14.1219 31.3871 16.6589C31.0287 19.196 29.938 21.5687 28.2523 23.4783C26.5666 25.3879 24.3613 26.7489 21.9143 27.39" stroke="#222222" stroke-width="2" stroke-linecap="round" stroke-linejoin="round"/>
<path d="M19.7805 25.6372H17.2195C16.2766 25.6372 15.5122 26.4124 15.5122 27.3686C15.5122 28.3247 16.2766 29.0999 17.2195 29.0999H19.7805C20.7234 29.0999 21.4878 28.3247 21.4878 27.3686C21.4878 26.4124 20.7234 25.6372 19.7805 25.6372Z" stroke="#222222" stroke-width="2" stroke-linecap="round" stroke-linejoin="round"/>
<path d="M16.5791 11.3532C16.579 10.9811 16.6735 10.6153 16.8535 10.291C17.0335 9.96679 17.2929 9.69508 17.6066 9.50215C17.9204 9.30921 18.2779 9.20156 18.6446 9.1896C19.0114 9.17763 19.3749 9.26175 19.7003 9.43384C20.0256 9.60593 20.3017 9.86017 20.5018 10.172C20.702 10.4839 20.8195 10.8428 20.843 11.2141C20.8665 11.5854 20.7952 11.9566 20.636 12.2918C20.4767 12.6271 20.235 12.915 19.934 13.1278C19.5882 13.3745 18.6535 13.855 18.7132 16.1144" stroke="#F12A23" stroke-width="2" stroke-linecap="round" stroke-linejoin="round"/>
<path d="M18.7131 20.43C19.4203 20.43 19.9936 19.8487 19.9936 19.1315C19.9936 18.4144 19.4203 17.833 18.7131 17.833C18.0059 17.833 17.4326 18.4144 17.4326 19.1315C17.4326 19.8487 18.0059 20.43 18.7131 20.43Z" fill="#F12A23"/>
<path d="M33.4388 10.4878C33.8916 10.4878 34.3259 10.6702 34.6461 10.9949C34.9663 11.3196 35.1462 11.76 35.1462 12.2191V16.5475C35.1462 17.5041 34.5955 18.2788 33.6522 18.2788H31.3047" stroke="#222222" stroke-width="2" stroke-linecap="round" stroke-linejoin="round"/>
<path d="M3.56083 10.4878C3.10802 10.4878 2.67376 10.6702 2.35358 10.9949C2.03339 11.3196 1.85352 11.76 1.85352 12.2191V16.5475C1.85352 17.5041 2.83095 18.2788 3.77425 18.2788H5.69498" stroke="#222222" stroke-width="2" stroke-linecap="round" stroke-linejoin="round"/>
</svg>
