<svg width="36" height="33" viewBox="0 0 36 33" fill="none" xmlns="http://www.w3.org/2000/svg">
<path d="M34.2064 22.271V29.0141C34.2256 29.2915 34.1851 29.5698 34.0876 29.8302C33.9902 30.0907 33.838 30.3272 33.6413 30.5238C33.4447 30.7204 33.2082 30.8726 32.9478 30.9701C32.6873 31.0676 32.409 31.1081 32.1316 31.0889H3.08448C2.80501 31.1172 2.52273 31.0831 2.25811 30.9888C1.99349 30.8946 1.75315 30.7427 1.55452 30.544C1.35589 30.3454 1.20395 30.1051 1.10972 29.8404C1.01548 29.5758 0.98131 29.2935 1.00968 29.0141V22.271" stroke="#222222" stroke-width="2" stroke-linecap="round" stroke-linejoin="round"/>
<path d="M9.8274 22.271H1.00952" stroke="#222222" stroke-width="2" stroke-linecap="round" stroke-linejoin="round"/>
<path d="M21.2388 22.271H13.9771" stroke="#222222" stroke-width="2" stroke-linecap="round" stroke-linejoin="round"/>
<path d="M34.2063 22.271H25.3884" stroke="#222222" stroke-width="2" stroke-linecap="round" stroke-linejoin="round"/>
<path d="M1.00952 18.1212V9.2515C1.00952 8.06368 1.63196 7.22857 3.08432 7.22857H32.1314C32.4099 7.20491 32.6901 7.24234 32.9526 7.33824C33.2151 7.43414 33.4534 7.5862 33.651 7.7838C33.8486 7.98139 34.0007 8.21975 34.0966 8.48222C34.1925 8.74469 34.2299 9.02493 34.2062 9.30337V18.1212" stroke="#222222" stroke-width="2" stroke-linecap="round" stroke-linejoin="round"/>
<path d="M6.19653 7.229V26.9396" stroke="#222222" stroke-width="2" stroke-linecap="round" stroke-linejoin="round"/>
<path d="M29.0193 7.229V26.9396" stroke="#222222" stroke-width="2" stroke-linecap="round" stroke-linejoin="round"/>
<path d="M17.8674 16.5653C18.7268 16.5653 19.4235 15.8686 19.4235 15.0092C19.4235 14.1498 18.7268 13.4531 17.8674 13.4531C17.008 13.4531 16.3113 14.1498 16.3113 15.0092C16.3113 15.8686 17.008 16.5653 17.8674 16.5653Z" fill="#F12A23"/>
<path d="M10.9531 3.07913C10.9599 2.53337 11.1815 2.01228 11.5699 1.62877C11.9583 1.24526 12.4821 1.03023 13.0279 1.03027H23.4019C23.9522 1.03027 24.4799 1.24887 24.869 1.63797C25.2581 2.02707 25.4767 2.5548 25.4767 3.10507" stroke="#F12A23" stroke-width="2" stroke-linecap="round" stroke-linejoin="round"/>
</svg>
