<svg width="144" height="40" viewBox="0 0 144 40" fill="none" xmlns="http://www.w3.org/2000/svg">
<path d="M49.6135 15.7311C49.6135 22.0185 54.4619 26.6218 61.0733 26.6218C67.6846 26.6218 72.533 22.0185 72.533 15.7311C72.533 9.44364 67.6846 4.84033 61.0733 4.84033C54.4619 4.84033 49.6135 9.44364 49.6135 15.7311ZM67.097 15.7311C67.097 19.5204 64.7169 21.9905 61.0733 21.9905C57.4297 21.9905 55.0496 19.5204 55.0496 15.7311C55.0496 11.9418 57.4297 9.47171 61.0733 9.47171C64.7169 9.47171 67.097 11.9418 67.097 15.7311Z" fill="white"/>
<path d="M75.1064 5.20523L82.2467 26.2569H89.2695L96.351 5.20523H90.9444L85.8903 21.1203L80.7188 5.20523H75.1064Z" fill="white"/>
<path d="M129.279 5.20523H123.196L133.187 19.5765L123.343 26.2569H129.014L133.187 19.5765L137.829 26.2569H143.941L133.892 11.8014L144 5.20523H138.094L133.892 11.8014L129.279 5.20523Z" fill="white"/>
<path d="M51.9067 36.3025C53.4134 36.3025 54.4644 35.4758 54.7216 34.1884L54.7731 33.9108H51.7303L51.6347 34.3904H54.0381C53.8397 35.2234 53.0385 35.8103 51.9508 35.8103C50.8777 35.8103 50.2677 35.2171 50.2603 34.2831C50.253 33.0273 51.2672 31.9544 52.7078 31.9544C53.5971 31.9544 54.0969 32.4277 54.1777 33.0714L54.7951 32.9452C54.6702 32.068 53.9425 31.4622 52.7445 31.4622C50.8777 31.4622 49.6062 32.8569 49.6136 34.3336C49.6209 35.5074 50.4588 36.3025 51.9067 36.3025Z" fill="white"/>
<path d="M56.3279 36.2457H59.7823L59.8852 35.7535H57.0555L57.9228 31.5127H57.298L56.3279 36.2457Z" fill="white"/>
<path d="M64.3383 31.4622C62.5009 31.4622 61.2147 32.8506 61.2147 34.3273C61.2147 35.4884 62.0305 36.2962 63.4637 36.2962C65.3085 36.2962 66.6021 34.9079 66.6021 33.4311C66.6021 32.27 65.7789 31.4622 64.3383 31.4622ZM64.2942 31.9544C65.3673 31.9544 65.9626 32.5476 65.9626 33.4753C65.9626 34.7248 64.8969 35.804 63.5152 35.804C62.4495 35.804 61.8615 35.2108 61.8615 34.2831C61.8615 33.0336 62.9125 31.9544 64.2942 31.9544Z" fill="white"/>
<path d="M68.1584 36.2457H70.2898C71.5172 36.2457 72.2522 35.6462 72.2522 34.8637C72.2522 34.3525 71.9288 33.9676 71.4069 33.8035C72.017 33.6268 72.4359 33.2103 72.4359 32.6549C72.4359 32.0049 71.892 31.5127 71.0542 31.5127H69.1285L68.1584 36.2457ZM70.966 31.9734C71.5245 31.9734 71.8112 32.2952 71.8112 32.7054C71.8112 33.2166 71.3629 33.57 70.672 33.57H69.327L69.6504 31.9734H70.966ZM70.6573 34.0307C71.2673 34.0307 71.6201 34.3777 71.6201 34.8511C71.6201 35.4064 71.1277 35.785 70.3045 35.785H68.8713L69.2314 34.0307H70.6573Z" fill="white"/>
<path d="M73.2918 36.2457H73.9533L75.0116 34.6365H77.2239L77.5767 36.2457H78.2014L77.1357 31.5127H76.4448L73.2918 36.2457ZM75.335 34.1443L76.68 32.1059L77.121 34.1443H75.335Z" fill="white"/>
<path d="M79.9386 36.2457H83.393L83.4959 35.7535H80.6662L81.5335 31.5127H80.9088L79.9386 36.2457Z" fill="white"/>
<path fill-rule="evenodd" clip-rule="evenodd" d="M93.1763 36.3025H98.364L105.327 16.3174L107.484 10.38L108.548 13.3487L109.612 16.3174L113.167 26.1467H118.588L110.398 4.84033H104.774L93.1763 36.3025Z" fill="#DD231D"/>
<path fill-rule="evenodd" clip-rule="evenodd" d="M14.0504 0.897779C17.8213 -0.27308 21.8547 -0.299251 25.6405 0.822575C29.4262 1.9444 32.7944 4.16384 35.319 7.20021C37.8436 10.2366 39.4112 13.9535 39.8236 17.881C40.236 21.8084 39.4746 25.77 37.6359 29.2647C35.7971 32.7593 32.9634 35.6302 29.4933 37.5142C26.0231 39.3981 22.0723 40.2106 18.1404 39.8488C14.2086 39.487 10.4723 37.9672 7.40405 35.4816C4.33583 32.996 2.07347 29.6563 0.903094 25.8847C-2.36666 15.3512 3.52207 4.16192 14.0504 0.897779Z" fill="url(#paint0_radial_3386_368)"/>
<path d="M1.71629 11.6119C2.23204 10.4839 2.85082 9.40495 3.56489 8.38858C6.64098 5.46748 6.64098 5.46748 11.1945 2.98691C11.1945 2.67866 11.1945 2.67866 11.1945 2.42017C12.5984 2.42623 12.5984 2.42623 14.2375 2.64104C12.9218 4.0488 12.9218 4.0488 11.5951 5.69927C11.4836 5.14831 11.4836 5.14831 11.3893 4.63739C5.1648 7.92742 5.15867 7.92742 1.71139 11.6119H1.71629ZM12.972 38.4066C19.8127 38.9624 19.8127 38.9624 28.0034 36.9273C28.0275 37.1117 28.0422 37.2972 28.0475 37.4831C29.3742 36.3435 29.3742 36.3435 30.7132 34.9637C29.2247 34.6882 29.2247 34.6882 27.4864 34.2355C27.615 34.7804 27.615 34.7804 27.7204 35.2974C17.2413 37.7889 17.2413 37.7889 9.60682 36.7877C10.6741 37.433 11.8009 37.9763 12.972 38.4103V38.4066ZM6.38005 34.386C5.6827 33.748 5.03142 33.0622 4.431 32.3338C12.1721 32.8836 12.1721 32.8836 26.2368 29.3084C26.0151 28.5001 26.0151 28.5001 25.7811 27.664C27.9862 28.687 27.9862 28.687 29.9904 29.5839C28.6686 31.647 28.6686 31.647 27.3357 33.5608C27.1911 32.9334 27.1911 32.9334 27.0245 32.2683C14.2693 35.3702 14.2693 35.3702 6.38005 34.386ZM2.5089 29.5232C2.09201 28.7829 1.72373 28.0167 1.40635 27.2295C10.4007 25.2671 10.4006 25.2671 28.6024 19.7259L28.0475 17.8837C30.2905 19.1652 30.2905 19.1652 32.3608 20.4031C31.2448 22.7356 31.2448 22.7356 30.0406 25.0839C29.8287 24.2259 29.8287 24.2259 29.6069 23.34C11.894 28.6652 11.894 28.6652 2.5089 29.5232ZM0.426316 24.0936C0.235648 23.267 0.098976 22.4291 0.0171507 21.5851C10.6175 16.1507 10.6175 16.1507 30.5625 10.3971C30.2342 9.60945 30.2342 9.60945 29.9022 8.84003C31.9664 10.1325 31.9664 10.1325 33.8824 11.4577C33.2159 13.3558 33.2159 13.3558 32.3939 15.4468C32.1109 14.5779 32.1109 14.5779 31.8231 13.7296C11.3721 19.8582 11.3721 19.8582 0.421416 24.0936H0.426316ZM0 18.1859C0.0775193 17.2464 0.222441 16.3137 0.433667 15.3946C6.36902 10.1689 6.36902 10.1689 18.6526 5.56457C18.4076 4.92622 18.4076 4.92622 18.1687 4.32185C20.3627 5.14588 20.3627 5.14588 22.634 6.11432C21.4898 7.9796 21.4898 7.9796 20.2623 10.0585L19.6963 8.44926C6.06153 13.3946 6.06153 13.3946 0 18.1859Z" fill="#FEFEFE"/>
<defs>
<radialGradient id="paint0_radial_3386_368" cx="0" cy="0" r="1" gradientUnits="userSpaceOnUse" gradientTransform="translate(29.1853 5.14068) scale(40.0304 40.0364)">
<stop stop-color="#DF241E"/>
<stop offset="1" stop-color="#770C08"/>
</radialGradient>
</defs>
</svg>
