<svg width="33" height="33" viewBox="0 0 33 33" fill="none" xmlns="http://www.w3.org/2000/svg">
<path fill-rule="evenodd" clip-rule="evenodd" d="M11.3686 0.726423C14.4198 -0.220958 17.6834 -0.242134 20.7465 0.665572C23.8097 1.57328 26.535 3.3691 28.5777 5.82592C30.6205 8.28275 31.8889 11.2902 32.2226 14.468C32.5563 17.6459 31.9402 20.8513 30.4524 23.679C28.9646 26.5067 26.6718 28.8296 23.864 30.3539C21.0561 31.8783 17.8594 32.5357 14.678 32.243C11.4966 31.9502 8.47346 30.7205 5.99085 28.7093C3.50826 26.6982 1.67772 23.9958 0.730722 20.9441C-1.91494 12.4212 2.84982 3.36755 11.3686 0.726423Z" fill="url(#paint0_radial_3388_566)"/>
<path d="M1.3887 9.39531C1.80602 8.48262 2.30669 7.60963 2.88446 6.78724C5.37343 4.42369 5.37343 4.42369 9.05781 2.41658C9.05781 2.16717 9.05781 2.16717 9.05781 1.95801C10.1938 1.96291 10.1938 1.96291 11.52 2.13673C10.4554 3.27578 10.4554 3.27578 9.38195 4.61124C9.29175 4.16543 9.29175 4.16543 9.21542 3.75204C4.179 6.4141 4.17405 6.4141 1.38474 9.39531H1.3887ZM10.4961 31.0758C16.0311 31.5255 16.0311 31.5255 22.6585 29.8788C22.6779 30.0281 22.6899 30.1782 22.6941 30.3286C23.7676 29.4065 23.7676 29.4065 24.851 28.29C23.6467 28.0671 23.6467 28.0671 22.2401 27.7009C22.3442 28.1418 22.3442 28.1418 22.4294 28.5601C13.9505 30.576 13.9505 30.576 7.77319 29.7659C8.63676 30.288 9.5485 30.7276 10.4961 31.0788V31.0758ZM5.1623 27.8226C4.59806 27.3063 4.07109 26.7515 3.58527 26.1621C9.84885 26.6069 9.84886 26.6069 21.229 23.7141C21.0497 23.0602 21.0497 23.0602 20.8603 22.3836C22.6446 23.2113 22.6446 23.2113 24.2662 23.9371C23.1967 25.6064 23.1967 25.6064 22.1182 27.1549C22.0013 26.6473 22.0013 26.6473 21.8665 26.1091C11.5458 28.619 11.5458 28.619 5.1623 27.8226ZM2.03003 23.8879C1.69271 23.289 1.39472 22.669 1.13793 22.0321C8.4155 20.4443 8.4155 20.4443 23.1431 15.9607L22.6941 14.4701C24.509 15.507 24.509 15.507 26.1842 16.5086C25.2812 18.3958 25.2812 18.3958 24.3068 20.2959C24.1354 19.6017 24.1354 19.6017 23.9559 18.8849C9.62381 23.1937 9.6238 23.1937 2.03003 23.8879ZM0.344946 19.4947C0.190671 18.8259 0.0800847 18.1479 0.0138771 17.465C8.59095 13.0678 8.59095 13.0678 24.7291 8.41238C24.4635 7.77509 24.4635 7.77509 24.1948 7.15253C25.8651 8.19831 25.8651 8.19831 27.4153 9.2706C26.8761 10.8064 26.8761 10.8064 26.211 12.4983C25.982 11.7952 25.982 11.7952 25.7491 11.1088C9.20155 16.0677 9.20155 16.0677 0.340982 19.4947H0.344946ZM0 14.7146C0.0627234 13.9545 0.179984 13.1997 0.350894 12.456C5.15338 8.22777 5.15338 8.22777 15.0924 4.50225C14.8942 3.98574 14.8942 3.98574 14.7009 3.49672C16.4761 4.16347 16.4761 4.16347 18.3139 4.94707C17.3881 6.45633 17.3881 6.45633 16.3948 8.13841L15.9369 6.83635C4.90458 10.8378 4.90458 10.8378 0 14.7146Z" fill="#FEFEFE"/>
<defs>
<radialGradient id="paint0_radial_3388_566" cx="0" cy="0" r="1" gradientUnits="userSpaceOnUse" gradientTransform="translate(23.6148 4.15949) scale(32.3899 32.3947)">
<stop stop-color="#DF241E"/>
<stop offset="1" stop-color="#770C08"/>
</radialGradient>
</defs>
</svg>
