<svg width="34" height="33" viewBox="0 0 34 33" fill="none" xmlns="http://www.w3.org/2000/svg">
<circle opacity="0.2" cx="16.8145" cy="16.5" r="16.5" fill="#8247E5"/>
<path d="M21.394 13.5803C21.0843 13.4 20.6862 13.4 20.3322 13.5803L17.8548 15.0679L16.1737 16.0145L13.7405 17.502C13.4308 17.6823 13.0327 17.6823 12.6788 17.502L10.7764 16.33C10.4668 16.1497 10.2456 15.7891 10.2456 15.3834V13.1296C10.2456 12.769 10.4225 12.4084 10.7764 12.183L12.6788 11.0561C12.9884 10.8758 13.3866 10.8758 13.7405 11.0561L15.6428 12.2281C15.9525 12.4084 16.1737 12.769 16.1737 13.1747V14.6622L17.8548 13.6705V12.1379C17.8548 11.7773 17.6779 11.4167 17.3239 11.1913L13.7848 9.07273C13.4751 8.89242 13.0769 8.89242 12.723 9.07273L9.09533 11.2364C8.74141 11.4167 8.56445 11.7773 8.56445 12.1379V16.3751C8.56445 16.7357 8.74141 17.0963 9.09533 17.3217L12.6788 19.4402C12.9884 19.6206 13.3866 19.6206 13.7405 19.4402L16.1737 17.9978L17.8548 17.0061L20.288 15.5637C20.5977 15.3834 20.9958 15.3834 21.3498 15.5637L23.2521 16.6906C23.5617 16.8709 23.7829 17.2315 23.7829 17.6372V19.891C23.7829 20.2516 23.606 20.6122 23.2521 20.8376L21.394 21.9645C21.0843 22.1448 20.6862 22.1448 20.3322 21.9645L18.4299 20.8376C18.1203 20.6573 17.8991 20.2967 17.8991 19.891V18.4486L16.2179 19.4402V20.9278C16.2179 21.2884 16.3949 21.649 16.7488 21.8744L20.3322 23.9929C20.6419 24.1732 21.0401 24.1732 21.394 23.9929L24.9774 21.8744C25.2871 21.6941 25.5083 21.3334 25.5083 20.9278V16.6455C25.5083 16.2849 25.3313 15.9243 24.9774 15.6989L21.394 13.5803Z" fill="#8247E5"/>
</svg>
