<svg width="34" height="33" viewBox="0 0 34 33" fill="none" xmlns="http://www.w3.org/2000/svg">
<circle opacity="0.2" cx="16.8926" cy="16.5" r="16.5" fill="#894EB7"/>
<path d="M21.0364 10.3288L18.1673 14.5913C17.969 14.8815 18.3505 15.2329 18.6252 14.9885L21.4484 12.5288C21.5247 12.4676 21.6316 12.5135 21.6316 12.6204V20.3051C21.6316 20.4121 21.4942 20.4579 21.4332 20.3815L12.8871 10.1454C12.6124 9.80931 12.2156 9.62598 11.7731 9.62598H11.4678C10.6743 9.62598 10.0181 10.2829 10.0181 11.0926V21.9093C10.0181 22.719 10.6743 23.376 11.4831 23.376C11.9867 23.376 12.4598 23.1163 12.7345 22.6732L15.6035 18.4107C15.8019 18.1204 15.4204 17.769 15.1457 18.0135L12.3225 20.4579C12.2461 20.519 12.1393 20.4732 12.1393 20.3663V12.6968C12.1393 12.5899 12.2767 12.544 12.3377 12.6204L20.8838 22.8565C21.1585 23.1926 21.5705 23.376 21.9978 23.376H22.303C23.1119 23.376 23.7681 22.719 23.7681 21.9093V11.0926C23.7681 10.2829 23.1119 9.62598 22.303 9.62598C21.7842 9.62598 21.3111 9.8857 21.0364 10.3288Z" fill="#884EB7"/>
</svg>
