<svg width="79" height="84" viewBox="0 0 79 84" fill="none" xmlns="http://www.w3.org/2000/svg">
<g opacity="0.5" filter="url(#filter0_f_266_3220)">
<rect x="18" y="23" width="43" height="43" rx="7" fill="url(#paint0_linear_266_3220)"/>
<rect x="18.5" y="23.5" width="42" height="42" rx="6.5" stroke="url(#paint1_linear_266_3220)"/>
<rect x="18.5" y="23.5" width="42" height="42" rx="6.5" stroke="url(#paint2_linear_266_3220)"/>
</g>
<rect x="13.5" y="0.5" width="52" height="52" rx="6.5" fill="url(#paint3_linear_266_3220)"/>
<rect x="13.5" y="0.5" width="52" height="52" rx="6.5" stroke="url(#paint4_linear_266_3220)"/>
<rect x="13.5" y="0.5" width="52" height="52" rx="6.5" stroke="url(#paint5_linear_266_3220)"/>
<rect x="16.5" y="3.5" width="46" height="46" rx="6.5" fill="url(#paint6_linear_266_3220)" stroke="url(#paint7_linear_266_3220)"/>
<g filter="url(#filter1_d_266_3220)">
<path d="M34.6787 34.3629H30.32C29.9898 34.3629 29.673 34.2317 29.4395 33.9982C29.2059 33.7647 29.0747 33.4479 29.0747 33.1176V25.0229" stroke="white" stroke-width="1.2" stroke-linecap="round" stroke-linejoin="round"/>
<path d="M48.3774 18.7954H39.0374" stroke="white" stroke-width="1.2" stroke-linecap="round" stroke-linejoin="round"/>
<path d="M48.0658 22.8431C48.5817 22.8431 48.9998 22.4249 48.9998 21.9091C48.9998 21.3933 48.5817 20.9751 48.0658 20.9751C47.55 20.9751 47.1318 21.3933 47.1318 21.9091C47.1318 22.4249 47.55 22.8431 48.0658 22.8431Z" fill="white"/>
<path d="M39.6599 21.9092H45.2639" stroke="white" stroke-width="1.2" stroke-linecap="round" stroke-linejoin="round"/>
<path d="M39.9714 25.9564C40.4872 25.9564 40.9054 25.5382 40.9054 25.0224C40.9054 24.5065 40.4872 24.0884 39.9714 24.0884C39.4555 24.0884 39.0374 24.5065 39.0374 25.0224C39.0374 25.5382 39.4555 25.9564 39.9714 25.9564Z" fill="white"/>
<path d="M48.3774 25.0229H42.7734" stroke="white" stroke-width="1.2" stroke-linecap="round" stroke-linejoin="round"/>
<path d="M48.0658 29.0697C48.5817 29.0697 48.9998 28.6515 48.9998 28.1357C48.9998 27.6198 48.5817 27.2017 48.0658 27.2017C47.55 27.2017 47.1318 27.6198 47.1318 28.1357C47.1318 28.6515 47.55 29.0697 48.0658 29.0697Z" fill="white"/>
<path d="M39.6599 28.1362H45.2639" stroke="white" stroke-width="1.2" stroke-linecap="round" stroke-linejoin="round"/>
<path d="M33.1221 31.2496V28.1362" stroke="white" stroke-width="1.2" stroke-linecap="round" stroke-linejoin="round"/>
<path d="M48.3774 34.3628H37.1694" stroke="white" stroke-width="1.2" stroke-linecap="round" stroke-linejoin="round"/>
<path d="M37.1694 25.0229H29.0747" stroke="white" stroke-width="1.2" stroke-linecap="round" stroke-linejoin="round"/>
<path d="M37.1694 31.249H48.3774" stroke="white" stroke-width="1.2" stroke-linecap="round" stroke-linejoin="round"/>
<path d="M29.0747 22.5319C29.116 21.4584 29.582 20.4454 30.3702 19.7156C30.7605 19.3542 31.2181 19.0732 31.717 18.8887C32.2159 18.7042 32.7462 18.6198 33.2777 18.6402C33.8092 18.6606 34.3315 18.7856 34.8147 19.0079C35.2979 19.2301 35.7326 19.5454 36.094 19.9357C36.4554 20.326 36.7363 20.7836 36.9209 21.2825C37.1054 21.7814 37.1898 22.3117 37.1694 22.8432V28.1359" stroke="white" stroke-width="1.2" stroke-linecap="round" stroke-linejoin="round"/>
</g>
<defs>
<filter id="filter0_f_266_3220" x="0" y="5" width="79" height="79" filterUnits="userSpaceOnUse" color-interpolation-filters="sRGB">
<feFlood flood-opacity="0" result="BackgroundImageFix"/>
<feBlend mode="normal" in="SourceGraphic" in2="BackgroundImageFix" result="shape"/>
<feGaussianBlur stdDeviation="9" result="effect1_foregroundBlur_266_3220"/>
</filter>
<filter id="filter1_d_266_3220" x="24.4746" y="18.0371" width="28.5254" height="24.9258" filterUnits="userSpaceOnUse" color-interpolation-filters="sRGB">
<feFlood flood-opacity="0" result="BackgroundImageFix"/>
<feColorMatrix in="SourceAlpha" type="matrix" values="0 0 0 0 0 0 0 0 0 0 0 0 0 0 0 0 0 0 127 0" result="hardAlpha"/>
<feOffset dy="4"/>
<feGaussianBlur stdDeviation="2"/>
<feComposite in2="hardAlpha" operator="out"/>
<feColorMatrix type="matrix" values="0 0 0 0 0 0 0 0 0 0 0 0 0 0 0 0 0 0 0.25 0"/>
<feBlend mode="normal" in2="BackgroundImageFix" result="effect1_dropShadow_266_3220"/>
<feBlend mode="normal" in="SourceGraphic" in2="effect1_dropShadow_266_3220" result="shape"/>
</filter>
<linearGradient id="paint0_linear_266_3220" x1="39.5" y1="23" x2="39.5" y2="66" gradientUnits="userSpaceOnUse">
<stop stop-color="#F1322C"/>
<stop offset="1" stop-color="#CA211C"/>
</linearGradient>
<linearGradient id="paint1_linear_266_3220" x1="39.5" y1="23" x2="39.5" y2="66" gradientUnits="userSpaceOnUse">
<stop stop-opacity="0"/>
<stop offset="1" stop-opacity="0.22"/>
</linearGradient>
<linearGradient id="paint2_linear_266_3220" x1="39.5" y1="23" x2="39.5" y2="66" gradientUnits="userSpaceOnUse">
<stop offset="0.0001" stop-color="white" stop-opacity="0.46"/>
<stop offset="1" stop-color="white" stop-opacity="0"/>
</linearGradient>
<linearGradient id="paint3_linear_266_3220" x1="39.5" y1="0" x2="39.5" y2="53" gradientUnits="userSpaceOnUse">
<stop stop-color="#F1322C"/>
<stop offset="1" stop-color="#CA211C"/>
</linearGradient>
<linearGradient id="paint4_linear_266_3220" x1="39.5" y1="0" x2="39.5" y2="53" gradientUnits="userSpaceOnUse">
<stop stop-opacity="0"/>
<stop offset="1" stop-opacity="0.22"/>
</linearGradient>
<linearGradient id="paint5_linear_266_3220" x1="39.5" y1="0" x2="39.5" y2="53" gradientUnits="userSpaceOnUse">
<stop offset="0.0001" stop-color="white" stop-opacity="0.46"/>
<stop offset="1" stop-color="white" stop-opacity="0"/>
</linearGradient>
<linearGradient id="paint6_linear_266_3220" x1="39.5" y1="3" x2="39.5" y2="50" gradientUnits="userSpaceOnUse">
<stop stop-color="#F1322C"/>
<stop offset="1" stop-color="#CA211C"/>
</linearGradient>
<linearGradient id="paint7_linear_266_3220" x1="39.5" y1="3" x2="39.5" y2="50" gradientUnits="userSpaceOnUse">
<stop offset="0.0001" stop-color="white" stop-opacity="0.46"/>
<stop offset="1" stop-color="white" stop-opacity="0"/>
</linearGradient>
</defs>
</svg>
