<svg width="79" height="84" viewBox="0 0 79 84" fill="none" xmlns="http://www.w3.org/2000/svg">
<g opacity="0.5" filter="url(#filter0_f_266_3218)">
<rect x="18" y="23" width="43" height="43" rx="7" fill="url(#paint0_linear_266_3218)"/>
<rect x="18.5" y="23.5" width="42" height="42" rx="6.5" stroke="url(#paint1_linear_266_3218)"/>
<rect x="18.5" y="23.5" width="42" height="42" rx="6.5" stroke="url(#paint2_linear_266_3218)"/>
</g>
<rect x="13.5" y="0.5" width="52" height="52" rx="6.5" fill="url(#paint3_linear_266_3218)"/>
<rect x="13.5" y="0.5" width="52" height="52" rx="6.5" stroke="url(#paint4_linear_266_3218)"/>
<rect x="13.5" y="0.5" width="52" height="52" rx="6.5" stroke="url(#paint5_linear_266_3218)"/>
<rect x="16.5" y="3.5" width="46" height="46" rx="6.5" fill="url(#paint6_linear_266_3218)" stroke="url(#paint7_linear_266_3218)"/>
<g filter="url(#filter1_d_266_3218)">
<path d="M30.1565 30.4238C30.6401 30.4238 31.0322 30.0317 31.0322 29.5481C31.0322 29.0644 30.6401 28.6724 30.1565 28.6724C29.6728 28.6724 29.2808 29.0644 29.2808 29.5481C29.2808 30.0317 29.6728 30.4238 30.1565 30.4238Z" fill="white"/>
<path d="M36.8564 25.5894H26.9316" stroke="white" stroke-width="1.2" stroke-linecap="round" stroke-linejoin="round"/>
<path d="M34.8133 32.3027H29.5591" stroke="white" stroke-width="1.2" stroke-linecap="round" stroke-linejoin="round"/>
<path d="M40.359 34.9303H28.099C27.9442 34.936 27.7898 34.9097 27.6455 34.8531C27.5013 34.7964 27.3703 34.7106 27.2607 34.601C27.1511 34.4914 27.0653 34.3604 27.0086 34.2162C26.952 34.0719 26.9257 33.9175 26.9314 33.7627V25.5894" stroke="white" stroke-width="1.2" stroke-linecap="round" stroke-linejoin="round"/>
<path d="M26.9316 23.2545C26.9545 22.9525 27.0849 22.6686 27.2991 22.4544C27.5133 22.2401 27.7972 22.1098 28.0993 22.0869H36.5645" stroke="white" stroke-width="1.2" stroke-linecap="round" stroke-linejoin="round"/>
<path d="M44.1538 34.9304C41.1939 33.4709 36.9292 28.5348 36.5352 22.1538L44.1538 18" stroke="white" stroke-width="1.2" stroke-linecap="round" stroke-linejoin="round"/>
<path d="M51.7433 22.1538L44.1538 18" stroke="white" stroke-width="1.2" stroke-linecap="round" stroke-linejoin="round"/>
<path d="M44.1538 34.9304C46.6992 33.6693 50.1904 29.8571 51.3872 24.6787" stroke="white" stroke-width="1.2" stroke-linecap="round" stroke-linejoin="round"/>
<path d="M43.8618 18.292V34.3467" stroke="white" stroke-width="1.2" stroke-linecap="round" stroke-linejoin="round"/>
</g>
<defs>
<filter id="filter0_f_266_3218" x="0" y="5" width="79" height="79" filterUnits="userSpaceOnUse" color-interpolation-filters="sRGB">
<feFlood flood-opacity="0" result="BackgroundImageFix"/>
<feBlend mode="normal" in="SourceGraphic" in2="BackgroundImageFix" result="shape"/>
<feGaussianBlur stdDeviation="9" result="effect1_foregroundBlur_266_3218"/>
</filter>
<filter id="filter1_d_266_3218" x="22.3306" y="17.3999" width="34.0127" height="26.1313" filterUnits="userSpaceOnUse" color-interpolation-filters="sRGB">
<feFlood flood-opacity="0" result="BackgroundImageFix"/>
<feColorMatrix in="SourceAlpha" type="matrix" values="0 0 0 0 0 0 0 0 0 0 0 0 0 0 0 0 0 0 127 0" result="hardAlpha"/>
<feOffset dy="4"/>
<feGaussianBlur stdDeviation="2"/>
<feComposite in2="hardAlpha" operator="out"/>
<feColorMatrix type="matrix" values="0 0 0 0 0 0 0 0 0 0 0 0 0 0 0 0 0 0 0.25 0"/>
<feBlend mode="normal" in2="BackgroundImageFix" result="effect1_dropShadow_266_3218"/>
<feBlend mode="normal" in="SourceGraphic" in2="effect1_dropShadow_266_3218" result="shape"/>
</filter>
<linearGradient id="paint0_linear_266_3218" x1="39.5" y1="23" x2="39.5" y2="66" gradientUnits="userSpaceOnUse">
<stop stop-color="#F1322C"/>
<stop offset="1" stop-color="#CA211C"/>
</linearGradient>
<linearGradient id="paint1_linear_266_3218" x1="39.5" y1="23" x2="39.5" y2="66" gradientUnits="userSpaceOnUse">
<stop stop-opacity="0"/>
<stop offset="1" stop-opacity="0.22"/>
</linearGradient>
<linearGradient id="paint2_linear_266_3218" x1="39.5" y1="23" x2="39.5" y2="66" gradientUnits="userSpaceOnUse">
<stop offset="0.0001" stop-color="white" stop-opacity="0.46"/>
<stop offset="1" stop-color="white" stop-opacity="0"/>
</linearGradient>
<linearGradient id="paint3_linear_266_3218" x1="39.5" y1="0" x2="39.5" y2="53" gradientUnits="userSpaceOnUse">
<stop stop-color="#F1322C"/>
<stop offset="1" stop-color="#CA211C"/>
</linearGradient>
<linearGradient id="paint4_linear_266_3218" x1="39.5" y1="0" x2="39.5" y2="53" gradientUnits="userSpaceOnUse">
<stop stop-opacity="0"/>
<stop offset="1" stop-opacity="0.22"/>
</linearGradient>
<linearGradient id="paint5_linear_266_3218" x1="39.5" y1="0" x2="39.5" y2="53" gradientUnits="userSpaceOnUse">
<stop offset="0.0001" stop-color="white" stop-opacity="0.46"/>
<stop offset="1" stop-color="white" stop-opacity="0"/>
</linearGradient>
<linearGradient id="paint6_linear_266_3218" x1="39.5" y1="3" x2="39.5" y2="50" gradientUnits="userSpaceOnUse">
<stop stop-color="#F1322C"/>
<stop offset="1" stop-color="#CA211C"/>
</linearGradient>
<linearGradient id="paint7_linear_266_3218" x1="39.5" y1="3" x2="39.5" y2="50" gradientUnits="userSpaceOnUse">
<stop offset="0.0001" stop-color="white" stop-opacity="0.46"/>
<stop offset="1" stop-color="white" stop-opacity="0"/>
</linearGradient>
</defs>
</svg>
