<svg width="65" height="77" viewBox="0 0 65 77" fill="none" xmlns="http://www.w3.org/2000/svg">
<g opacity="0.1">
<mask id="path-1-outside-1_3360_620" maskUnits="userSpaceOnUse" x="-5.06592" y="-0.535534" width="77.7817" height="77.7817" fill="black">
<rect fill="white" x="-5.06592" y="-0.535534" width="77.7817" height="77.7817"/>
<path fill-rule="evenodd" clip-rule="evenodd" d="M44.8733 43.7469C51.3295 50.203 56.4874 57.597 60.3862 65.7153C60.0859 65.8359 59.7857 65.9587 59.4855 66.0837C55.6225 58.0953 50.5287 50.8164 44.1662 44.454L3.41936 3.70711C3.5377 3.58995 3.65585 3.4724 3.7738 3.35445C3.89176 3.23649 4.00931 3.11834 4.12646 3L44.8733 43.7469ZM62.1771 65.291L58.4757 66.9003L62.1771 70.9424L62.1771 65.291Z"/>
</mask>
<path fill-rule="evenodd" clip-rule="evenodd" d="M44.8733 43.7469C51.3295 50.203 56.4874 57.597 60.3862 65.7153C60.0859 65.8359 59.7857 65.9587 59.4855 66.0837C55.6225 58.0953 50.5287 50.8164 44.1662 44.454L3.41936 3.70711C3.5377 3.58995 3.65585 3.4724 3.7738 3.35445C3.89176 3.23649 4.00931 3.11834 4.12646 3L44.8733 43.7469ZM62.1771 65.291L58.4757 66.9003L62.1771 70.9424L62.1771 65.291Z" fill="url(#paint0_linear_3360_620)"/>
<path d="M60.3862 65.7153L61.1315 67.5712L63.1138 66.7751L62.189 64.8495L60.3862 65.7153ZM59.4855 66.0837L57.685 66.9544L58.5084 68.6571L60.2544 67.93L59.4855 66.0837ZM3.41936 3.70711L2.01232 2.28576L0.583759 3.69993L2.00514 5.12132L3.41936 3.70711ZM4.12646 3L5.54068 1.58579L4.11929 0.164401L2.70512 1.59296L4.12646 3ZM58.4757 66.9003L57.6783 65.0662L55.1078 66.1838L57.0007 68.251L58.4757 66.9003ZM62.1771 65.291L64.1771 65.291L64.1771 62.2406L61.3796 63.4569L62.1771 65.291ZM62.1771 70.9424L60.7021 72.2931L64.1771 76.088L64.1771 70.9424L62.1771 70.9424ZM62.189 64.8495C58.1963 56.5356 52.9092 48.9544 46.2875 42.3326L43.4591 45.1611C49.7497 51.4517 54.7785 58.6585 58.5833 66.5812L62.189 64.8495ZM60.2544 67.93C60.5469 67.8082 60.8393 67.6886 61.1315 67.5712L59.6408 63.8594C59.3326 63.9832 59.0245 64.1092 58.7167 64.2374L60.2544 67.93ZM42.752 45.8682C48.9503 52.0665 53.9157 59.1599 57.685 66.9544L61.2861 65.213C57.3292 57.0307 52.107 49.5663 45.5804 43.0398L42.752 45.8682ZM2.00514 5.12132L42.752 45.8682L45.5804 43.0398L4.83357 2.29289L2.00514 5.12132ZM2.35959 1.94023C2.24402 2.05581 2.12826 2.17098 2.01232 2.28576L4.8264 5.12846C4.94714 5.00893 5.06768 4.88899 5.18802 4.76866L2.35959 1.94023ZM2.70512 1.59296C2.59034 1.7089 2.47516 1.82466 2.35959 1.94023L5.18802 4.76866C5.30835 4.64833 5.42828 4.52779 5.54781 4.40704L2.70512 1.59296ZM46.2875 42.3326L5.54068 1.58579L2.71225 4.41421L43.4591 45.1611L46.2875 42.3326ZM59.2732 68.7344L62.9745 67.1252L61.3796 63.4569L57.6783 65.0662L59.2732 68.7344ZM63.6521 69.5917L59.9508 65.5496L57.0007 68.251L60.7021 72.2931L63.6521 69.5917ZM60.1771 65.291L60.1771 70.9424L64.1771 70.9424L64.1771 65.291L60.1771 65.291Z" fill="url(#paint1_linear_3360_620)" mask="url(#path-1-outside-1_3360_620)"/>
</g>
<defs>
<linearGradient id="paint0_linear_3360_620" x1="57.5653" y1="70.5809" x2="1.44225" y2="10.4114" gradientUnits="userSpaceOnUse">
<stop stop-color="white"/>
<stop offset="1" stop-color="white" stop-opacity="0"/>
</linearGradient>
<linearGradient id="paint1_linear_3360_620" x1="62.1827" y1="69.3146" x2="7.30472" y2="9.55899" gradientUnits="userSpaceOnUse">
<stop stop-color="white"/>
<stop offset="1" stop-color="white" stop-opacity="0"/>
</linearGradient>
</defs>
</svg>
