<svg width="119" height="62" viewBox="0 0 119 62" fill="none" xmlns="http://www.w3.org/2000/svg">
<g opacity="0.1">
<mask id="path-1-outside-1_3360_641" maskUnits="userSpaceOnUse" x="-0.746514" y="-7.81174" width="121.315" height="78.1244" fill="black">
<rect fill="white" x="-0.746514" y="-7.81174" width="121.315" height="78.1244"/>
<path fill-rule="evenodd" clip-rule="evenodd" d="M107.191 55.7103L107.934 54L113.562 59.1531L105.694 59.1531L106.638 56.9815C94.6138 54.63 83.093 50.408 72.3305 44.1943L2.85156 4.08057C2.9685 3.88038 3.08503 3.67972 3.20115 3.47859C3.31727 3.27746 3.43278 3.07622 3.54768 2.87485L73.0266 42.9886C83.7431 49.1757 95.2161 53.3759 107.191 55.7103Z"/>
</mask>
<path fill-rule="evenodd" clip-rule="evenodd" d="M107.191 55.7103L107.934 54L113.562 59.1531L105.694 59.1531L106.638 56.9815C94.6138 54.63 83.093 50.408 72.3305 44.1943L2.85156 4.08057C2.9685 3.88038 3.08503 3.67972 3.20115 3.47859C3.31727 3.27746 3.43278 3.07622 3.54768 2.87485L73.0266 42.9886C83.7431 49.1757 95.2161 53.3759 107.191 55.7103Z" fill="url(#paint0_linear_3360_641)"/>
<path d="M107.934 54L106.1 53.2025L107.218 50.6321L109.285 52.525L107.934 54ZM107.191 55.7103L109.025 56.5077L108.384 57.9806L106.808 57.6733L107.191 55.7103ZM113.562 59.1531L114.912 57.6781L118.707 61.1531L113.562 61.1531L113.562 59.1531ZM105.694 59.1531L105.694 61.1531L102.643 61.1531L103.859 58.3557L105.694 59.1531ZM106.638 56.9815L107.022 55.0187L109.464 55.4964L108.472 57.7789L106.638 56.9815ZM2.85156 4.08057L1.85156 5.81262L0.110727 4.80755L1.12459 3.07182L2.85156 4.08057ZM3.54768 2.87485L1.81059 1.88363L2.80685 0.13773L4.54768 1.1428L3.54768 2.87485ZM109.768 54.7975L109.025 56.5077L105.356 54.9128L106.1 53.2025L109.768 54.7975ZM112.211 60.6282L106.583 55.475L109.285 52.525L114.912 57.6781L112.211 60.6282ZM105.694 57.1531L113.562 57.1531L113.562 61.1531L105.694 61.1531L105.694 57.1531ZM108.472 57.7789L107.528 59.9506L103.859 58.3557L104.804 56.184L108.472 57.7789ZM106.254 58.9443C94.0212 56.552 82.2911 52.2544 71.3305 45.9263L73.3305 42.4622C83.8949 48.5616 95.2065 52.708 107.022 55.0187L106.254 58.9443ZM71.3305 45.9263L1.85156 5.81262L3.85156 2.34852L73.3305 42.4622L71.3305 45.9263ZM1.12459 3.07182C1.23982 2.87454 1.35466 2.6768 1.46909 2.47859L4.9332 4.47859C4.81539 4.68263 4.69717 4.88621 4.57853 5.08932L1.12459 3.07182ZM1.46909 2.47859C1.58353 2.28038 1.69737 2.08206 1.81059 1.88363L5.28477 3.86608C5.16819 4.07038 5.051 4.27455 4.9332 4.47859L1.46909 2.47859ZM4.54768 1.1428L74.0266 41.2565L72.0266 44.7206L2.54768 4.6069L4.54768 1.1428ZM74.0266 41.2565C84.5446 47.3291 95.8079 51.4537 107.573 53.7472L106.808 57.6733C94.6242 55.2982 82.9416 51.0224 72.0266 44.7206L74.0266 41.2565Z" fill="url(#paint1_linear_3360_641)" mask="url(#path-1-outside-1_3360_641)"/>
</g>
<defs>
<linearGradient id="paint0_linear_3360_641" x1="112.99" y1="51.5936" x2="11.8509" y2="-2.19923" gradientUnits="userSpaceOnUse">
<stop stop-color="white"/>
<stop offset="1" stop-color="white" stop-opacity="0"/>
</linearGradient>
<linearGradient id="paint1_linear_3360_641" x1="114.829" y1="60.0722" x2="12.4039" y2="7.19732" gradientUnits="userSpaceOnUse">
<stop stop-color="white"/>
<stop offset="1" stop-color="white" stop-opacity="0"/>
</linearGradient>
</defs>
</svg>
