<svg width="72" height="29" viewBox="0 0 72 29" fill="none" xmlns="http://www.w3.org/2000/svg">
<g opacity="0.1">
<mask id="path-1-outside-1_3360_629" maskUnits="userSpaceOnUse" x="-1.55134" y="-0.361431" width="75.9986" height="29.3295" fill="black">
<rect fill="white" x="-1.55134" y="-0.361431" width="75.9986" height="29.3295"/>
<path fill-rule="evenodd" clip-rule="evenodd" d="M45.4451 14.9984C52.1043 13.214 58.2686 10.3263 63.883 6.4896C63.7322 6.2974 63.5823 6.10375 63.4332 5.90867C57.8911 9.67395 51.8122 12.5106 45.2497 14.269L3.22157 25.5304C3.25472 25.6517 3.2876 25.7732 3.3202 25.8948C3.3528 26.0165 3.38506 26.1381 3.41699 26.2598L45.4451 14.9984ZM64.8934 7.44329L63.0806 4.99358L67.027 3.7478L64.8934 7.44329Z"/>
</mask>
<path fill-rule="evenodd" clip-rule="evenodd" d="M45.4451 14.9984C52.1043 13.214 58.2686 10.3263 63.883 6.4896C63.7322 6.2974 63.5823 6.10375 63.4332 5.90867C57.8911 9.67395 51.8122 12.5106 45.2497 14.269L3.22157 25.5304C3.25472 25.6517 3.2876 25.7732 3.3202 25.8948C3.3528 26.0165 3.38506 26.1381 3.41699 26.2598L45.4451 14.9984ZM64.8934 7.44329L63.0806 4.99358L67.027 3.7478L64.8934 7.44329Z" fill="url(#paint0_linear_3360_629)"/>
<path d="M63.883 6.4896L65.4565 5.25503L66.7751 6.93562L65.0114 8.14086L63.883 6.4896ZM45.4451 14.9984L45.9628 16.9302L45.4451 14.9984ZM63.4332 5.90867L62.3092 4.25436L63.8736 3.1915L65.0221 4.69413L63.4332 5.90867ZM3.22157 25.5304L1.29236 26.0578L0.762278 24.1188L2.70393 23.5986L3.22157 25.5304ZM3.41699 26.2598L3.93463 28.1916L1.99298 28.7119L1.48255 26.7676L3.41699 26.2598ZM63.0806 4.99358L61.4729 6.18327L59.8056 3.93014L62.4785 3.08635L63.0806 4.99358ZM64.8934 7.44329L66.6254 8.44329L65.1002 11.085L63.2857 8.63297L64.8934 7.44329ZM67.027 3.7478L66.4249 1.84057L71.3318 0.291571L68.759 4.7478L67.027 3.7478ZM65.0114 8.14086C59.2178 12.1 52.8481 15.0853 45.9628 16.9302L44.9275 13.0665C51.3605 11.3428 57.3194 8.55262 62.7546 4.83834L65.0114 8.14086ZM65.0221 4.69413C65.1662 4.88262 65.311 5.06959 65.4565 5.25503L62.3095 7.72418C62.1534 7.52522 61.9983 7.32488 61.8442 7.12321L65.0221 4.69413ZM44.7321 12.3372C51.0704 10.6388 56.9454 7.89858 62.3092 4.25436L64.5571 7.56298C58.8369 11.4493 52.5541 14.3824 45.7673 16.2009L44.7321 12.3372ZM2.70393 23.5986L44.7321 12.3372L45.7673 16.2009L3.7392 27.4623L2.70393 23.5986ZM1.38835 26.4125C1.35662 26.2941 1.32462 26.1759 1.29236 26.0578L5.15077 25.003C5.18482 25.1276 5.21858 25.2523 5.25205 25.3772L1.38835 26.4125ZM1.48255 26.7676C1.45148 26.6493 1.42008 26.5309 1.38835 26.4125L5.25205 25.3772C5.28552 25.5021 5.31865 25.627 5.35144 25.7519L1.48255 26.7676ZM45.9628 16.9302L3.93463 28.1916L2.89935 24.3279L44.9275 13.0665L45.9628 16.9302ZM64.6883 3.80389L66.501 6.2536L63.2857 8.63297L61.4729 6.18327L64.6883 3.80389ZM67.629 5.65503L63.6826 6.90081L62.4785 3.08635L66.4249 1.84057L67.629 5.65503ZM63.1613 6.44329L65.2949 2.7478L68.759 4.7478L66.6254 8.44329L63.1613 6.44329Z" fill="url(#paint1_linear_3360_629)" mask="url(#path-1-outside-1_3360_629)"/>
</g>
<defs>
<linearGradient id="paint0_linear_3360_629" x1="63.8751" y1="2.24312" x2="4.45984" y2="20.4001" gradientUnits="userSpaceOnUse">
<stop stop-color="white"/>
<stop offset="1" stop-color="white" stop-opacity="0"/>
</linearGradient>
<linearGradient id="paint1_linear_3360_629" x1="66.4164" y1="4.81436" x2="7.97153" y2="23.1707" gradientUnits="userSpaceOnUse">
<stop stop-color="white"/>
<stop offset="1" stop-color="white" stop-opacity="0"/>
</linearGradient>
</defs>
</svg>
