<svg width="69" height="36" viewBox="0 0 69 36" fill="none" xmlns="http://www.w3.org/2000/svg">
<g opacity="0.1">
<mask id="path-1-outside-1_3360_635" maskUnits="userSpaceOnUse" x="0.0176465" y="-4.32176" width="69.9519" height="46.1603" fill="black">
<rect fill="white" x="0.0176465" y="-4.32176" width="69.9519" height="46.1603"/>
<path fill-rule="evenodd" clip-rule="evenodd" d="M59.6959 32.0064L60.1335 31L63.1856 33.7948L58.9184 33.7948L59.3963 32.6955C53.0583 31.402 46.9826 29.1443 41.2971 25.8618L3.61572 4.10645C3.67914 3.99787 3.74234 3.88905 3.80532 3.77997C3.86829 3.67089 3.93094 3.56174 3.99326 3.45254L41.6747 25.2079C47.3352 28.476 53.3849 30.722 59.6959 32.0064Z"/>
</mask>
<path fill-rule="evenodd" clip-rule="evenodd" d="M59.6959 32.0064L60.1335 31L63.1856 33.7948L58.9184 33.7948L59.3963 32.6955C53.0583 31.402 46.9826 29.1443 41.2971 25.8618L3.61572 4.10645C3.67914 3.99787 3.74234 3.88905 3.80532 3.77997C3.86829 3.67089 3.93094 3.56174 3.99326 3.45254L41.6747 25.2079C47.3352 28.476 53.3849 30.722 59.6959 32.0064Z" fill="url(#paint0_linear_3360_635)"/>
<path d="M60.1335 31L58.2994 30.2025L59.417 27.632L61.4842 29.525L60.1335 31ZM59.6959 32.0064L61.5301 32.8038L60.8843 34.2892L59.2971 33.9662L59.6959 32.0064ZM63.1856 33.7948L64.5362 32.3197L68.3312 35.7948L63.1856 35.7948L63.1856 33.7948ZM58.9184 33.7948L58.9184 35.7948L55.868 35.7948L57.0842 32.9973L58.9184 33.7948ZM59.3963 32.6955L59.7962 30.7359L62.2146 31.2295L61.2305 33.493L59.3963 32.6955ZM3.61572 4.10645L2.61572 5.8385L0.874888 4.83342L1.88875 3.0977L3.61572 4.10645ZM3.99326 3.45254L2.25617 2.46131L3.25242 0.715413L4.99326 1.72048L3.99326 3.45254ZM41.6747 25.2079L40.6747 26.94L41.6747 25.2079ZM61.9676 31.7974L61.5301 32.8038L57.8618 31.2089L58.2994 30.2025L61.9676 31.7974ZM61.8349 35.2698L58.7828 32.475L61.4842 29.525L64.5362 32.3197L61.8349 35.2698ZM58.9184 31.7948L63.1856 31.7948L63.1856 35.7948L58.9184 35.7948L58.9184 31.7948ZM61.2305 33.493L60.7525 34.5922L57.0842 32.9973L57.5622 31.8981L61.2305 33.493ZM58.9964 34.6551C52.4548 33.3201 46.1755 30.9877 40.2971 27.5939L42.2971 24.1298C47.7897 27.3009 53.6618 29.484 59.7962 30.7359L58.9964 34.6551ZM40.2971 27.5939L2.61572 5.8385L4.61572 2.37439L42.2971 24.1298L40.2971 27.5939ZM1.88875 3.0977C1.95047 2.99204 2.01197 2.88613 2.07327 2.77997L5.53737 4.77997C5.47271 4.89196 5.40782 5.00371 5.34269 5.11519L1.88875 3.0977ZM2.07327 2.77997C2.13456 2.6738 2.19553 2.56758 2.25617 2.46131L5.73035 4.44376C5.66635 4.5559 5.60203 4.66797 5.53737 4.77997L2.07327 2.77997ZM4.99326 1.72048L42.6747 23.4759L40.6747 26.94L2.99326 5.18459L4.99326 1.72048ZM42.6747 23.4759C48.142 26.6324 53.9877 28.8036 60.0948 30.0466L59.2971 33.9662C52.782 32.6403 46.5284 30.3196 40.6747 26.94L42.6747 23.4759Z" fill="url(#paint1_linear_3360_635)" mask="url(#path-1-outside-1_3360_635)"/>
</g>
<defs>
<linearGradient id="paint0_linear_3360_635" x1="63.3484" y1="29.8745" x2="8.49657" y2="0.700417" gradientUnits="userSpaceOnUse">
<stop stop-color="white"/>
<stop offset="1" stop-color="white" stop-opacity="0"/>
</linearGradient>
<linearGradient id="paint1_linear_3360_635" x1="63.8753" y1="34.2764" x2="8.72988" y2="5.83717" gradientUnits="userSpaceOnUse">
<stop stop-color="white"/>
<stop offset="1" stop-color="white" stop-opacity="0"/>
</linearGradient>
</defs>
</svg>
