<svg width="24" height="24" viewBox="0 0 24 24" fill="none" xmlns="http://www.w3.org/2000/svg">
<circle cx="12" cy="12" r="10" fill="url(#paint0_linear_3360_644)"/>
<g filter="url(#filter0_i_3360_644)">
<circle cx="12" cy="12" r="9" fill="url(#paint1_linear_3360_644)"/>
</g>
<circle cx="12" cy="12" r="8.5" stroke="black" stroke-opacity="0.4"/>
<path d="M15.899 8H8.05961V9.82713H11.0397V12.508H12.9272V9.82713H15.899V8Z" fill="#0A332C"/>
<path d="M12 12.7952C9.54139 12.7952 7.54636 12.4202 7.54636 11.9575C7.54636 11.4947 9.54139 11.1197 12 11.1197C14.4586 11.1197 16.4536 11.4947 16.4536 11.9575C16.4536 12.4202 14.4586 12.7952 12 12.7952ZM17 12.0931C17 11.4947 14.7649 11.016 12 11.016C9.2351 11.016 7 11.5027 7 12.0931C7 12.6197 8.73841 13.0585 11.0397 13.1543V17H12.9272V13.1543C15.245 13.0585 17 12.6197 17 12.0931Z" fill="#0A332C"/>
<defs>
<filter id="filter0_i_3360_644" x="3" y="3" width="18" height="18" filterUnits="userSpaceOnUse" color-interpolation-filters="sRGB">
<feFlood flood-opacity="0" result="BackgroundImageFix"/>
<feBlend mode="normal" in="SourceGraphic" in2="BackgroundImageFix" result="shape"/>
<feColorMatrix in="SourceAlpha" type="matrix" values="0 0 0 0 0 0 0 0 0 0 0 0 0 0 0 0 0 0 127 0" result="hardAlpha"/>
<feOffset dy="2"/>
<feComposite in2="hardAlpha" operator="arithmetic" k2="-1" k3="1"/>
<feColorMatrix type="matrix" values="0 0 0 0 1 0 0 0 0 1 0 0 0 0 1 0 0 0 0.5 0"/>
<feBlend mode="normal" in2="shape" result="effect1_innerShadow_3360_644"/>
</filter>
<linearGradient id="paint0_linear_3360_644" x1="12" y1="2" x2="12" y2="22" gradientUnits="userSpaceOnUse">
<stop stop-color="#29CC96"/>
<stop offset="1" stop-color="#1F9970"/>
</linearGradient>
<linearGradient id="paint1_linear_3360_644" x1="12" y1="3" x2="12" y2="21" gradientUnits="userSpaceOnUse">
<stop stop-color="#29CC96"/>
<stop offset="1" stop-color="#1F9970"/>
</linearGradient>
</defs>
</svg>
