<svg width="72" height="29" viewBox="0 0 72 29" fill="none" xmlns="http://www.w3.org/2000/svg">
<g opacity="0.1">
<mask id="path-1-outside-1_3360_626" maskUnits="userSpaceOnUse" x="-1.55134" y="0.291691" width="75.9986" height="29.3295" fill="black">
<rect fill="white" x="-1.55134" y="0.291691" width="75.9986" height="29.3295"/>
<path fill-rule="evenodd" clip-rule="evenodd" d="M45.4451 14.2614C52.1043 16.0457 58.2686 18.9334 63.883 22.7702C63.7322 22.9624 63.5823 23.156 63.4332 23.3511C57.8911 19.5858 51.8122 16.7492 45.2497 14.9907L3.22157 3.72934C3.25472 3.60806 3.2876 3.48658 3.3202 3.36492C3.3528 3.24326 3.38506 3.12162 3.41699 3L45.4451 14.2614ZM64.8934 21.8165L63.0806 24.2662L67.027 25.512L64.8934 21.8165Z"/>
</mask>
<path fill-rule="evenodd" clip-rule="evenodd" d="M45.4451 14.2614C52.1043 16.0457 58.2686 18.9334 63.883 22.7702C63.7322 22.9624 63.5823 23.156 63.4332 23.3511C57.8911 19.5858 51.8122 16.7492 45.2497 14.9907L3.22157 3.72934C3.25472 3.60806 3.2876 3.48658 3.3202 3.36492C3.3528 3.24326 3.38506 3.12162 3.41699 3L45.4451 14.2614ZM64.8934 21.8165L63.0806 24.2662L67.027 25.512L64.8934 21.8165Z" fill="url(#paint0_linear_3360_626)"/>
<path d="M63.883 22.7702L65.4565 24.0047L66.7751 22.3241L65.0114 21.1189L63.883 22.7702ZM63.4332 23.3511L62.3092 25.0054L63.8736 26.0683L65.0221 24.5656L63.4332 23.3511ZM45.2497 14.9907L45.7673 13.0589L45.2497 14.9907ZM3.22157 3.72934L1.29236 3.20194L0.762278 5.14093L2.70393 5.66119L3.22157 3.72934ZM3.41699 3L3.93463 1.06815L1.99298 0.547885L1.48255 2.49214L3.41699 3ZM63.0806 24.2662L61.4729 23.0765L59.8056 25.3296L62.4785 26.1734L63.0806 24.2662ZM64.8934 21.8165L66.6254 20.8165L65.1002 18.1747L63.2857 20.6268L64.8934 21.8165ZM67.027 25.512L66.4249 27.4192L71.3318 28.9682L68.759 24.512L67.027 25.512ZM65.0114 21.1189C59.2178 17.1597 52.8481 14.1745 45.9628 12.3296L44.9275 16.1933C51.3605 17.917 57.3194 20.7071 62.7546 24.4214L65.0114 21.1189ZM65.0221 24.5656C65.1662 24.3772 65.311 24.1902 65.4565 24.0047L62.3095 21.5356C62.1534 21.7346 61.9983 21.9349 61.8442 22.1366L65.0221 24.5656ZM44.7321 16.9226C51.0704 18.6209 56.9454 21.3612 62.3092 25.0054L64.5571 21.6968C58.8369 17.8105 52.5541 14.8774 45.7673 13.0589L44.7321 16.9226ZM2.70393 5.66119L44.7321 16.9226L45.7673 13.0589L3.7392 1.79749L2.70393 5.66119ZM1.38835 2.84728C1.35662 2.96569 1.32462 3.08391 1.29236 3.20194L5.15077 4.25675C5.18482 4.1322 5.21858 4.00747 5.25205 3.88256L1.38835 2.84728ZM1.48255 2.49214C1.45148 2.61049 1.42008 2.72887 1.38835 2.84728L5.25205 3.88256C5.28552 3.75764 5.31865 3.63274 5.35144 3.50786L1.48255 2.49214ZM45.9628 12.3296L3.93463 1.06815L2.89935 4.93185L44.9275 16.1933L45.9628 12.3296ZM64.6883 25.4559L66.501 23.0062L63.2857 20.6268L61.4729 23.0765L64.6883 25.4559ZM67.629 23.6047L63.6826 22.359L62.4785 26.1734L66.4249 27.4192L67.629 23.6047ZM63.1613 22.8165L65.2949 26.512L68.759 24.512L66.6254 20.8165L63.1613 22.8165Z" fill="url(#paint1_linear_3360_626)" mask="url(#path-1-outside-1_3360_626)"/>
</g>
<defs>
<linearGradient id="paint0_linear_3360_626" x1="63.8751" y1="27.0166" x2="4.45984" y2="8.8597" gradientUnits="userSpaceOnUse">
<stop stop-color="white"/>
<stop offset="1" stop-color="white" stop-opacity="0"/>
</linearGradient>
<linearGradient id="paint1_linear_3360_626" x1="66.4164" y1="24.4454" x2="7.97153" y2="6.08903" gradientUnits="userSpaceOnUse">
<stop stop-color="white"/>
<stop offset="1" stop-color="white" stop-opacity="0"/>
</linearGradient>
</defs>
</svg>
