<svg width="65" height="77" viewBox="0 0 65 77" fill="none" xmlns="http://www.w3.org/2000/svg">
<g opacity="0.1">
<mask id="path-1-outside-1_3360_623" maskUnits="userSpaceOnUse" x="-5.06592" y="-0.709101" width="77.7817" height="77.7817" fill="black">
<rect fill="white" x="-5.06592" y="-0.709101" width="77.7817" height="77.7817"/>
<path fill-rule="evenodd" clip-rule="evenodd" d="M44.8733 32.7902C51.3295 26.3341 56.4874 18.9401 60.3862 10.8218C60.0859 10.7012 59.7857 10.5784 59.4855 10.4534C55.6225 18.4418 50.5287 25.7207 44.1662 32.0831L3.41936 72.83C3.5377 72.9472 3.65585 73.0647 3.7738 73.1827C3.89176 73.3006 4.00931 73.4188 4.12646 73.5371L44.8733 32.7902ZM62.1771 11.2461L58.4757 9.63681L62.1771 5.59473L62.1771 11.2461Z"/>
</mask>
<path fill-rule="evenodd" clip-rule="evenodd" d="M44.8733 32.7902C51.3295 26.3341 56.4874 18.9401 60.3862 10.8218C60.0859 10.7012 59.7857 10.5784 59.4855 10.4534C55.6225 18.4418 50.5287 25.7207 44.1662 32.0831L3.41936 72.83C3.5377 72.9472 3.65585 73.0647 3.7738 73.1827C3.89176 73.3006 4.00931 73.4188 4.12646 73.5371L44.8733 32.7902ZM62.1771 11.2461L58.4757 9.63681L62.1771 5.59473L62.1771 11.2461Z" fill="url(#paint0_linear_3360_623)"/>
<path d="M60.3862 10.8218L61.1315 8.96587L63.1138 9.76199L62.189 11.6876L60.3862 10.8218ZM59.4855 10.4534L57.685 9.58267L58.5084 7.87997L60.2544 8.60706L59.4855 10.4534ZM3.41936 72.83L2.01232 74.2514L0.583759 72.8372L2.00514 71.4158L3.41936 72.83ZM4.12646 73.5371L5.54068 74.9513L4.11929 76.3727L2.70512 74.9442L4.12646 73.5371ZM58.4757 9.63681L57.6783 11.471L55.1078 10.3533L57.0007 8.28614L58.4757 9.63681ZM62.1771 11.2461L64.1771 11.2461L64.1771 14.2965L61.3796 13.0802L62.1771 11.2461ZM62.1771 5.59473L60.7021 4.24405L64.1771 0.449117L64.1771 5.59473L62.1771 5.59473ZM62.189 11.6876C58.1963 20.0016 52.9092 27.5828 46.2875 34.2045L43.4591 31.376C49.7497 25.0854 54.7785 17.8786 58.5833 9.95596L62.189 11.6876ZM60.2544 8.60706C60.5469 8.72887 60.8393 8.84849 61.1315 8.96587L59.6408 12.6777C59.3326 12.5539 59.0245 12.4279 58.7167 12.2997L60.2544 8.60706ZM42.752 30.6689C48.9503 24.4706 53.9157 17.3772 57.685 9.58267L61.2861 11.3241C57.3292 19.5064 52.107 26.9708 45.5804 33.4974L42.752 30.6689ZM2.00514 71.4158L42.752 30.6689L45.5804 33.4974L4.83357 74.2442L2.00514 71.4158ZM2.35959 74.5969C2.24402 74.4813 2.12826 74.3661 2.01232 74.2514L4.8264 71.4087C4.94714 71.5282 5.06768 71.6481 5.18802 71.7684L2.35959 74.5969ZM2.70512 74.9442C2.59034 74.8282 2.47516 74.7124 2.35959 74.5969L5.18802 71.7684C5.30835 71.8888 5.42828 72.0093 5.54781 72.1301L2.70512 74.9442ZM46.2875 34.2045L5.54068 74.9513L2.71225 72.1229L43.4591 31.376L46.2875 34.2045ZM59.2732 7.80267L62.9745 9.41195L61.3796 13.0802L57.6783 11.471L59.2732 7.80267ZM63.6521 6.9454L59.9508 10.9875L57.0007 8.28614L60.7021 4.24405L63.6521 6.9454ZM60.1771 11.2461L60.1771 5.59473L64.1771 5.59473L64.1771 11.2461L60.1771 11.2461Z" fill="url(#paint1_linear_3360_623)" mask="url(#path-1-outside-1_3360_623)"/>
</g>
<defs>
<linearGradient id="paint0_linear_3360_623" x1="57.5653" y1="5.95616" x2="1.44225" y2="66.1257" gradientUnits="userSpaceOnUse">
<stop stop-color="white"/>
<stop offset="1" stop-color="white" stop-opacity="0"/>
</linearGradient>
<linearGradient id="paint1_linear_3360_623" x1="62.1827" y1="7.22246" x2="7.30472" y2="66.9781" gradientUnits="userSpaceOnUse">
<stop stop-color="white"/>
<stop offset="1" stop-color="white" stop-opacity="0"/>
</linearGradient>
</defs>
</svg>
