<svg width="121" height="63" viewBox="0 0 121 63" fill="none" xmlns="http://www.w3.org/2000/svg">
<g opacity="0.1">
<mask id="path-1-outside-1_3360_638" maskUnits="userSpaceOnUse" x="-0.746514" y="-7.77551" width="121.315" height="78.1244" fill="black">
<rect fill="white" x="-0.746514" y="-7.77551" width="121.315" height="78.1244"/>
<path fill-rule="evenodd" clip-rule="evenodd" d="M107.556 6.75628L107.8 8.39318L114.57 4.87214L106.97 2.83574L107.355 5.41763C95.0722 7.74 83.307 12.0056 72.3305 18.3428L2.85156 58.4565C2.9685 58.6567 3.08503 58.8574 3.20115 59.0585C3.31727 59.2596 3.43278 59.4609 3.54768 59.6623L73.0266 19.5486C83.852 13.2986 95.4492 9.07605 107.556 6.75628Z"/>
</mask>
<path fill-rule="evenodd" clip-rule="evenodd" d="M107.556 6.75628L107.8 8.39318L114.57 4.87214L106.97 2.83574L107.355 5.41763C95.0722 7.74 83.307 12.0056 72.3305 18.3428L2.85156 58.4565C2.9685 58.6567 3.08503 58.8574 3.20115 59.0585C3.31727 59.2596 3.43278 59.4609 3.54768 59.6623L73.0266 19.5486C83.852 13.2986 95.4492 9.07605 107.556 6.75628Z" fill="url(#paint0_linear_3360_638)"/>
<path d="M107.8 8.39318L105.822 8.68875L106.236 11.4609L108.723 10.1675L107.8 8.39318ZM107.556 6.75628L109.534 6.46071L109.226 4.39988L107.179 4.79202L107.556 6.75628ZM114.57 4.87214L115.493 6.64648L120.058 4.27207L115.087 2.94029L114.57 4.87214ZM106.97 2.83574L107.487 0.903891L104.541 0.114382L104.992 3.13132L106.97 2.83574ZM107.355 5.41763L107.727 7.38281L109.618 7.02531L109.334 5.12205L107.355 5.41763ZM2.85156 58.4565L1.85156 56.7245L0.110727 57.7296L1.12459 59.4653L2.85156 58.4565ZM3.54768 59.6623L1.81059 60.6535L2.80685 62.3994L4.54768 61.3943L3.54768 59.6623ZM109.778 8.09761L109.534 6.46071L105.577 7.05186L105.822 8.68875L109.778 8.09761ZM113.647 3.0978L106.877 6.61884L108.723 10.1675L115.493 6.64648L113.647 3.0978ZM106.452 4.76759L114.052 6.804L115.087 2.94029L107.487 0.903891L106.452 4.76759ZM109.334 5.12205L108.948 2.54017L104.992 3.13132L105.377 5.7132L109.334 5.12205ZM106.984 3.45244C94.4879 5.81503 82.5091 10.1568 71.3305 16.6108L73.3305 20.0749C84.1048 13.8544 95.6564 9.66497 107.727 7.38281L106.984 3.45244ZM71.3305 16.6108L1.85156 56.7245L3.85156 60.1886L73.3305 20.0749L71.3305 16.6108ZM1.12459 59.4653C1.23982 59.6626 1.35466 59.8603 1.46909 60.0585L4.9332 58.0585C4.81539 57.8545 4.69717 57.6509 4.57853 57.4478L1.12459 59.4653ZM1.46909 60.0585C1.58353 60.2567 1.69737 60.4551 1.81059 60.6535L5.28477 58.671C5.16819 58.4667 5.051 58.2626 4.9332 58.0585L1.46909 60.0585ZM4.54768 61.3943L74.0266 21.2806L72.0266 17.8165L2.54768 57.9302L4.54768 61.3943ZM74.0266 21.2806C84.6514 15.1464 96.0367 10.9999 107.932 8.72055L107.179 4.79202C94.8617 7.15225 83.0525 11.4507 72.0266 17.8165L74.0266 21.2806Z" fill="url(#paint1_linear_3360_638)" mask="url(#path-1-outside-1_3360_638)"/>
</g>
<defs>
<linearGradient id="paint0_linear_3360_638" x1="112.99" y1="10.9435" x2="11.8509" y2="64.7363" gradientUnits="userSpaceOnUse">
<stop stop-color="white"/>
<stop offset="1" stop-color="white" stop-opacity="0"/>
</linearGradient>
<linearGradient id="paint1_linear_3360_638" x1="115" y1="2.50002" x2="12.5" y2="55.5" gradientUnits="userSpaceOnUse">
<stop stop-color="white"/>
<stop offset="1" stop-color="white" stop-opacity="0"/>
</linearGradient>
</defs>
</svg>
