<svg width="14" height="14" viewBox="0 0 14 14" fill="none" xmlns="http://www.w3.org/2000/svg">
<circle cx="6.99984" cy="7.00008" r="5.83333" fill="url(#paint0_linear_3274_3488)"/>
<circle cx="7" cy="7" r="4.75" stroke="black" stroke-opacity="0.3"/>
<path d="M11.375 4.66675C11.375 4.66675 10.2083 2.47925 7 2.47925C3.79167 2.47925 2.625 4.66675 2.625 4.66675C2.625 4.66675 3.79167 2.04175 7 2.04175C10.2083 2.04175 11.375 4.66675 11.375 4.66675Z" fill="white" fill-opacity="0.8"/>
<path d="M7.25818 3.53661L6.6347 3.42667L6.45924 4.42176L5.22053 4.20334L5.10477 4.85986L5.56722 4.9414C5.77367 4.9778 5.86598 5.05794 5.83686 5.2231L5.34979 7.98541C5.35224 8.02305 5.34605 8.06076 5.3317 8.09564C5.31734 8.13053 5.2952 8.16167 5.26696 8.18668C5.23872 8.21169 5.20513 8.22991 5.16877 8.23995C5.1324 8.24999 5.09423 8.25158 5.05716 8.2446L4.58232 8.16087L4.4481 8.80136L5.64964 9.01322L5.46981 10.0331L6.09329 10.143L6.27312 9.12316L6.68602 9.19596L6.50619 10.2158L7.12967 10.3258L7.3095 9.3059L7.44576 9.32993C8.72162 9.5549 9.25685 9.0064 9.40683 8.15583C9.4453 7.91406 9.40346 7.66634 9.28771 7.45062C9.17195 7.2349 8.98868 7.06307 8.76595 6.96145C8.97188 6.88954 9.15063 6.7559 9.27786 6.57874C9.40509 6.40157 9.47462 6.18949 9.47696 5.97138C9.50407 5.28646 8.75984 4.89554 8.13343 4.72974L8.31108 3.72226L7.67521 3.61014L7.49975 4.60523L7.08685 4.53243L7.26231 3.53733L7.25818 3.53661ZM8.1861 7.93207C8.098 8.43168 7.72862 8.64327 7.06384 8.52606L6.39907 8.40884L6.63351 7.0793L7.43454 7.22054C7.62034 7.2533 8.29484 7.4361 8.20674 7.93571L8.1861 7.93207ZM7.37403 5.29405C7.68371 5.34865 8.28947 5.51081 8.19992 6.01868C8.18067 6.17121 8.10658 6.31153 7.99147 6.41345C7.87635 6.51536 7.72809 6.57191 7.57434 6.57252L6.74854 6.42691L6.96696 5.18821L7.41289 5.26684L7.37403 5.29405Z" fill="#331F14"/>
<defs>
<linearGradient id="paint0_linear_3274_3488" x1="6.99984" y1="1.16675" x2="6.99984" y2="12.8334" gradientUnits="userSpaceOnUse">
<stop stop-color="#FFDD99"/>
<stop offset="1" stop-color="#FF9900"/>
</linearGradient>
</defs>
</svg>
