<svg width="33" height="33" viewBox="0 0 33 33" fill="none" xmlns="http://www.w3.org/2000/svg">
<path opacity="0.3" d="M16.5 33C25.6127 33 33 25.6127 33 16.5C33 7.3873 25.6127 0 16.5 0C7.3873 0 0 7.3873 0 16.5C0 25.6127 7.3873 33 16.5 33Z" fill="#D81C1C"/>
<path fill-rule="evenodd" clip-rule="evenodd" d="M22.9061 12.8948L22.5779 12.6621L22.5776 12.6619C22.0662 12.2993 21.533 11.9213 21.0094 11.5458C20.9953 11.5351 20.9813 11.5244 20.9637 11.5136C20.8933 11.4601 20.8124 11.403 20.7138 11.3709L20.7068 11.3673C19.1527 10.9863 17.5752 10.5964 16.0384 10.2165L16.0381 10.2164L16.038 10.2164L16.0376 10.2163L15.5974 10.1075C14.8374 9.92012 14.0782 9.73275 13.319 9.54538C12.5598 9.35802 11.8006 9.17065 11.0406 8.98328L11.0406 8.98327L11.0406 8.98327L11.0405 8.98327L11.0405 8.98327C11.0018 8.97257 10.9631 8.96186 10.9209 8.95116C10.7837 8.9119 10.6253 8.86907 10.4564 8.89048C10.4072 8.89762 10.3649 8.91547 10.3262 8.94045L10.284 8.97614C10.2171 9.04038 10.182 9.12246 10.1644 9.16886L10.1538 9.19741V9.36158L10.1608 9.38656C10.8831 11.4392 11.6192 13.5141 12.3439 15.5565L12.3441 15.5571L12.3448 15.559C12.5837 16.2324 12.8214 16.9022 13.0568 17.5666L13.7144 19.4189C14.2381 20.8941 14.7691 22.3896 15.2913 23.8657C15.337 24.0085 15.4672 24.1013 15.6291 24.1155H15.6643C15.8156 24.1155 15.9493 24.0406 16.0162 23.9192L18.8031 19.7971C19.1427 19.2956 19.4824 18.7932 19.822 18.2907C20.1615 17.7885 20.501 17.2863 20.8405 16.785C20.9795 16.5798 21.1184 16.3737 21.2574 16.1677C21.3964 15.9615 21.5354 15.7554 21.6745 15.5501L21.7316 15.4654C22.1711 14.8138 22.6229 14.1441 23.0714 13.4908L23.0961 13.4551V13.4123C23.1066 13.2874 23.1102 13.0304 22.9061 12.8948ZM18.9027 14.7885L18.9027 14.7886C18.4867 15.0093 18.0667 15.2322 17.6454 15.4537L18.8207 14.1761C19.2466 13.7099 19.6886 13.2302 20.1256 12.7558L20.3197 12.5451L20.3303 12.5344C20.3725 12.4773 20.4253 12.4237 20.4816 12.3666L20.4816 12.3666C20.4912 12.3569 20.5009 12.3472 20.5108 12.3374L20.5108 12.3374L20.5109 12.3374C20.541 12.3075 20.5721 12.2766 20.6012 12.2417C20.8616 12.4237 21.1255 12.6093 21.3789 12.7913C21.5619 12.9234 21.7484 13.0554 21.9384 13.1875C21.1642 13.5872 20.3901 13.9976 19.6406 14.3973C19.3967 14.5263 19.1509 14.6568 18.9036 14.788L18.9027 14.7885ZM16.4173 15.907C16.9346 15.3467 17.4554 14.7792 17.9586 14.226L18.4021 13.7426C18.9231 13.1744 19.4536 12.596 19.9819 12.024C18.9616 11.7724 17.9403 11.5208 16.9191 11.2693C15.8976 11.0176 14.8762 10.766 13.8556 10.5143C13.4932 10.4216 13.1237 10.3323 12.7683 10.2467C12.3636 10.1503 11.9519 10.0504 11.5437 9.94332C11.5647 9.96902 11.5856 9.99436 11.6064 10.0196L11.6064 10.0196L11.6064 10.0196C11.6521 10.0749 11.6973 10.1296 11.7408 10.186C11.7724 10.2249 11.804 10.2646 11.8357 10.3043C11.9029 10.3886 11.9706 10.4736 12.0399 10.5536L12.0434 10.5572L12.7208 11.3834L13.3982 12.2096C14.3905 13.4195 15.4145 14.6721 16.4173 15.907ZM16.1886 21.1819C16.1993 21.0785 16.2102 20.9744 16.2212 20.8698L16.2212 20.8696C16.2501 20.595 16.2792 20.3173 16.3047 20.0434L16.3364 19.7384L16.3364 19.7381C16.3575 19.5344 16.3786 19.3307 16.3997 19.1333L16.422 18.9195C16.4645 18.5117 16.5081 18.0942 16.544 17.6843L16.5546 17.5987C16.5898 17.2917 16.6249 16.9741 16.6461 16.6565C16.6848 16.6351 16.727 16.6136 16.7727 16.5958C16.7859 16.5896 16.7991 16.5835 16.8123 16.5775C16.8519 16.5594 16.8915 16.5414 16.9311 16.5173L16.9312 16.5172C17.744 16.0854 18.5568 15.6536 19.3731 15.2253C20.186 14.7971 21.02 14.3545 21.8469 13.9155C21.0939 15.0219 20.3373 16.139 19.6054 17.2275L19.1925 17.8383C18.6943 18.5755 18.1881 19.3245 17.6841 20.0648C17.5409 20.2787 17.3942 20.4949 17.2487 20.7095C17.1368 20.8744 17.0256 21.0384 16.917 21.1997C16.6355 21.6137 16.347 22.0384 16.0654 22.4631C16.1006 22.0349 16.1429 21.603 16.1886 21.1819ZM11.2368 10.6563C11.2525 10.6995 11.2681 10.7428 11.2834 10.7856C12.0786 13.0316 12.8738 15.2744 13.6691 17.5172C14.0667 18.6387 14.4644 19.7602 14.862 20.8821L15.2385 21.9421C15.2878 22.0884 15.3406 22.2383 15.3934 22.381C15.4001 22.4003 15.4074 22.42 15.4148 22.4401C15.4267 22.4722 15.4388 22.5051 15.4497 22.5381C15.464 22.402 15.4777 22.266 15.4913 22.1306C15.5076 21.9676 15.5238 21.8057 15.5411 21.6458C15.5476 21.5841 15.5541 21.5222 15.5606 21.4601C15.6285 20.812 15.698 20.1481 15.7558 19.4902L15.7593 19.4652C15.7593 19.4652 15.8156 18.9727 15.8402 18.755C15.8442 18.7193 15.8484 18.6835 15.8526 18.6475C15.8669 18.525 15.8813 18.4009 15.8895 18.2768V18.2732C15.9177 18.0198 15.9423 17.77 15.9669 17.5202L15.9669 17.5202C15.9825 17.3765 15.9975 17.2306 16.0126 17.0835C16.0351 16.8651 16.0578 16.6442 16.083 16.4245C15.9868 16.3164 15.8964 16.2043 15.8074 16.0941C15.776 16.0552 15.7448 16.0166 15.7136 15.9784C15.6221 15.8642 15.5271 15.7464 15.4321 15.6358C15.1107 15.2408 14.7893 14.849 14.4679 14.4572C14.3072 14.2613 14.1465 14.0654 13.9858 13.8691C13.0533 12.7342 12.0962 11.5636 11.1461 10.4001C11.1743 10.4834 11.2055 10.5699 11.2368 10.6563Z" fill="white"/>
</svg>
