<svg width="33" height="34" viewBox="0 0 33 34" fill="none" xmlns="http://www.w3.org/2000/svg">
<path opacity="0.2" d="M16.5 33.9102C7.425 33.9102 0 26.4852 0 17.4102C0 8.33516 7.425 0.910156 16.5 0.910156C25.575 0.910156 33 8.33516 33 17.4102C33 26.4852 25.575 33.9102 16.5 33.9102Z" fill="#002868"/>
<path fill-rule="evenodd" clip-rule="evenodd" d="M8.1863 27.3108H24.8184C25.6896 27.3108 26.4024 26.598 26.4024 25.7268V9.09474C26.4024 8.22354 25.6896 7.51074 24.8184 7.51074H8.1863C7.31509 7.51074 6.60229 8.22354 6.60229 9.09474V25.7268C6.60229 26.598 7.31509 27.3108 8.1863 27.3108ZM7.12826 19.7864H25.8722C26.0174 19.7864 26.1362 19.6676 26.1362 19.5224V9.09441C26.1362 8.36841 25.5422 7.77441 24.8162 7.77441H8.18426C7.45826 7.77441 6.86426 8.36841 6.86426 9.09441V19.5224C6.86426 19.6676 6.98306 19.7864 7.12826 19.7864Z" fill="#002868"/>
<path d="M10.4625 25.3169C10.4103 25.3169 10.3681 25.2693 10.3681 25.2173V22.5567C10.3681 22.5047 10.3258 22.4571 10.2737 22.4571H9.33452C9.28172 22.4571 9.23486 22.4148 9.23486 22.3628V21.8486C9.23486 21.7965 9.28238 21.749 9.33452 21.749H12.2253C12.2775 21.749 12.325 21.7958 12.325 21.8486V22.3628C12.325 22.4148 12.2775 22.4571 12.2253 22.4571H11.2914C11.2393 22.4571 11.1918 22.5039 11.1918 22.5567V25.2173C11.1918 25.2693 11.1495 25.3169 11.0974 25.3169H10.4625Z" fill="white"/>
<path d="M15.2085 21.8486C15.2085 21.7965 15.2507 21.749 15.3029 21.749H15.9325C15.9847 21.749 16.0322 21.7958 16.0322 21.8486V23.6643C16.0322 24.7401 15.4237 25.3644 14.4581 25.3644C13.4978 25.3644 12.8945 24.7401 12.8945 23.6643V21.8486C12.8945 21.7965 12.9368 21.749 12.9889 21.749H13.6186C13.6707 21.749 13.7182 21.7958 13.7182 21.8486V23.69C13.7182 24.2199 13.9908 24.5975 14.4634 24.5975C14.9359 24.5975 15.2085 24.2199 15.2085 23.69V21.8486Z" fill="white"/>
<path d="M18.9252 22.9146C18.8414 22.9146 18.815 22.8828 18.7833 22.8201C18.6731 22.5627 18.4315 22.4004 18.0646 22.4004C17.7339 22.4004 17.4561 22.5159 17.4561 22.7364C17.4561 22.9779 17.7134 23.0775 18.2797 23.1456C19.1404 23.2452 19.6334 23.508 19.6334 24.1896C19.6334 24.9558 18.9615 25.3599 18.1015 25.3599C17.3564 25.3599 16.7162 24.9975 16.6165 24.2373C16.606 24.1638 16.6429 24.1374 16.7162 24.1374H17.2937C17.3669 24.1374 17.4092 24.1692 17.4303 24.2265C17.5089 24.4788 17.7768 24.6729 18.1649 24.6729C18.5061 24.6729 18.8051 24.5466 18.8051 24.2793C18.8051 23.9592 18.4903 23.9019 17.8606 23.8227C17.1366 23.7282 16.633 23.5185 16.633 22.8519C16.633 22.1853 17.2052 21.708 18.1022 21.708C18.91 21.708 19.4717 22.1436 19.5872 22.7943C19.603 22.8678 19.5819 22.9152 19.5034 22.9152L18.9252 22.9146Z" fill="white"/>
<path d="M20.3468 25.3169C20.2947 25.3169 20.2524 25.2693 20.2524 25.2173V21.8486C20.2524 21.7965 20.2947 21.749 20.3468 21.749H21.7737C22.8338 21.749 23.6573 22.4783 23.6573 23.5434C23.6573 24.5928 22.8443 25.3169 21.7737 25.3169H20.3468ZM21.7737 24.6081C22.346 24.6081 22.7915 24.1566 22.7915 23.5323C22.7915 22.9079 22.3454 22.4565 21.7685 22.4565H21.1757C21.1236 22.4565 21.0815 22.5033 21.0815 22.5561V24.513C21.0815 24.5652 21.1236 24.6074 21.1757 24.6074L21.7737 24.6081Z" fill="white"/>
<path d="M17.4733 17.6453H15.7573C15.6484 17.6453 15.5593 17.5562 15.5593 17.4473V10.1873C15.5593 10.0784 15.6484 9.98926 15.7573 9.98926H17.4733C17.5822 9.98926 17.6713 10.0784 17.6713 10.1873V17.4473C17.6713 17.5562 17.5822 17.6453 17.4733 17.6453Z" fill="white"/>
<path d="M20.3932 12.1013H12.6052C12.4963 12.1013 12.4072 12.0122 12.4072 11.9033V10.1873C12.4072 10.0784 12.4963 9.98926 12.6052 9.98926H20.3932C20.5021 9.98926 20.5912 10.0784 20.5912 10.1873V11.9033C20.5912 12.0122 20.5021 12.1013 20.3932 12.1013Z" fill="white"/>
</svg>
