<svg width="33" height="34" viewBox="0 0 33 34" fill="none" xmlns="http://www.w3.org/2000/svg">
<path opacity="0.2" d="M32.503 21.402C30.2992 30.2413 21.3459 35.6203 12.5055 33.4165C3.66922 31.2128 -1.71029 22.2594 0.494007 13.4206C2.69675 4.58017 11.6496 -0.799864 20.4874 1.40392C29.3272 3.6077 34.7067 12.5621 32.503 21.402Z" fill="#56CE60"/>
<path d="M21.1649 13.4506C20.7828 11.7311 19.4802 10.6717 17.6391 10.3764V8.55273H15.6765V10.3417C13.5749 10.6196 11.9597 11.8874 11.9597 14.0585C11.9597 16.5422 13.8355 17.2543 15.6765 17.7406V21.4922C14.5476 21.2316 13.9744 20.4848 13.7486 19.408L11.4907 20.1027C11.8034 21.8743 13.2276 23.3332 15.6765 23.6111V25.5737H17.6391V23.5937C19.9665 23.2637 21.5123 21.8916 21.5123 19.7727C21.5123 17.3585 19.567 16.5248 17.6391 16.0037V12.478C18.4381 12.7558 18.8897 13.3464 19.0981 14.1106L21.1649 13.4506ZM14.2349 13.9022C14.2349 13.1206 14.6691 12.5648 15.6765 12.3737V15.4827C14.8255 15.1874 14.2349 14.7532 14.2349 13.9022ZM19.2023 19.9116C19.2023 20.8148 18.577 21.3185 17.6391 21.5095V18.279C18.5423 18.5916 19.2023 19.0085 19.2023 19.9116Z" fill="#56CE60"/>
</svg>
