<svg width="33" height="33" viewBox="0 0 33 33" fill="none" xmlns="http://www.w3.org/2000/svg">
<path opacity="0.2" d="M16.5 33C25.6127 33 33 25.6127 33 16.5C33 7.3873 25.6127 0 16.5 0C7.3873 0 0 7.3873 0 16.5C0 25.6127 7.3873 33 16.5 33Z" fill="#2775C9"/>
<path d="M16.2427 28.3584C9.54986 28.3584 4.12549 22.934 4.12549 16.2412C4.12549 9.5484 9.54986 4.12402 16.2427 4.12402C22.9355 4.12402 28.3599 9.5484 28.3599 16.2412C28.3599 19.4549 27.0832 22.5369 24.8108 24.8094C22.5384 27.0818 19.4564 28.3584 16.2427 28.3584ZM15.5208 11.745C14.8578 11.7778 14.2311 12.0574 13.7636 12.5286C13.2961 12.9999 13.0217 13.6289 12.9942 14.2921C12.9942 15.54 13.7574 16.3547 15.3764 16.695L16.5108 16.9631C17.6142 17.2209 18.068 17.5921 18.068 18.2212C18.068 18.8503 17.2739 19.469 16.2427 19.469C15.8764 19.5026 15.508 19.4324 15.1797 19.2664C14.8515 19.1005 14.5766 18.8455 14.3864 18.5306C14.3301 18.4111 14.2412 18.31 14.1299 18.2388C14.0186 18.1677 13.8895 18.1294 13.7574 18.1284H13.1489C13.1021 18.1371 13.0575 18.1549 13.0177 18.1809C12.9778 18.2068 12.9434 18.2404 12.9166 18.2797C12.8898 18.319 12.871 18.3633 12.8613 18.4098C12.8516 18.4564 12.8512 18.5045 12.8602 18.5512C13.0084 19.1561 13.353 19.6948 13.84 20.0829C14.327 20.471 14.929 20.6867 15.5517 20.6962V21.5625C15.5517 21.7553 15.6283 21.9402 15.7647 22.0766C15.901 22.2129 16.0859 22.2895 16.2788 22.2895C16.4716 22.2895 16.6565 22.2129 16.7929 22.0766C16.9292 21.9402 17.0058 21.7553 17.0058 21.5625V20.6859C17.7099 20.6779 18.3831 20.3954 18.882 19.8984C19.3809 19.4014 19.666 18.7294 19.6767 18.0253C19.6767 16.7156 18.9239 15.9628 17.1399 15.5812L16.1086 15.3543C15.0774 15.0965 14.5927 14.7562 14.5927 14.1787C14.5927 13.6012 15.2114 12.9618 16.2427 12.9618C16.5675 12.9279 16.8951 12.9887 17.1861 13.137C17.477 13.2852 17.7189 13.5145 17.8824 13.7971C17.9486 13.9383 18.0536 14.0578 18.185 14.1418C18.3164 14.2257 18.4689 14.2707 18.6249 14.2715H19.1096C19.2198 14.2446 19.315 14.1755 19.3748 14.079C19.4345 13.9826 19.4541 13.8666 19.4292 13.7559C19.2895 13.1974 18.977 12.6973 18.5363 12.3269C18.0955 11.9566 17.5491 11.7348 16.9749 11.6934V10.9818C16.9749 10.789 16.8983 10.6041 16.7619 10.4677C16.6256 10.3314 16.4407 10.2548 16.2478 10.2548C16.055 10.2548 15.8701 10.3314 15.7337 10.4677C15.5974 10.6041 15.5208 10.789 15.5208 10.9818V11.745ZM7.15736 16.2412C7.15855 18.1408 7.75649 19.9921 8.86675 21.5335C9.97701 23.0749 11.5435 24.2286 13.3449 24.8315H13.4892C13.6123 24.8315 13.7304 24.7826 13.8174 24.6956C13.9044 24.6086 13.9533 24.4905 13.9533 24.3675V24.1509C13.9536 23.9589 13.897 23.7712 13.7905 23.6115C13.684 23.4517 13.5325 23.3272 13.3552 23.2537C11.9523 22.6875 10.7506 21.7149 9.90439 20.4608C9.05819 19.2067 8.60607 17.7283 8.60607 16.2154C8.60607 14.7026 9.05819 13.2242 9.90439 11.9701C10.7506 10.716 11.9523 9.74341 13.3552 9.17715C13.5317 9.10545 13.6828 8.9828 13.7894 8.82485C13.8959 8.66689 13.953 8.48079 13.9533 8.29027V8.05309C13.954 7.98345 13.9378 7.91467 13.9063 7.85259C13.8747 7.79051 13.8286 7.73697 13.7719 7.69649C13.7153 7.656 13.6497 7.62979 13.5807 7.62006C13.5118 7.61033 13.4415 7.61737 13.3758 7.64059C11.567 8.23881 9.99257 9.39176 8.87628 10.9357C7.75999 12.4796 7.15854 14.336 7.15736 16.2412ZM25.328 16.2412C25.3246 14.3433 24.7257 12.4944 23.6156 10.955C22.5055 9.41569 20.9402 8.26361 19.1405 7.66121H18.9858C18.8573 7.66121 18.734 7.71228 18.6431 7.80317C18.5522 7.89407 18.5011 8.01735 18.5011 8.1459V8.30059C18.5053 8.49948 18.5669 8.69293 18.6785 8.85761C18.7901 9.02229 18.947 9.15117 19.1302 9.22871C20.5299 9.79663 21.7283 10.7693 22.5721 12.0222C23.4158 13.2751 23.8665 14.7513 23.8665 16.2618C23.8665 17.7724 23.4158 19.2486 22.5721 20.5015C21.7283 21.7544 20.5299 22.727 19.1302 23.295C18.9505 23.3733 18.7968 23.5013 18.6872 23.6638C18.5776 23.8264 18.5167 24.0168 18.5114 24.2128V24.3881C18.5123 24.4645 18.5313 24.5397 18.5667 24.6074C18.6022 24.6752 18.6532 24.7335 18.7156 24.7778C18.7779 24.822 18.8499 24.8509 18.9255 24.862C19.0011 24.8732 19.0783 24.8662 19.1508 24.8418C20.952 24.2366 22.5174 23.0806 23.6258 21.5373C24.7343 19.994 25.3297 18.1413 25.328 16.2412Z" fill="#2775C9"/>
</svg>
