<svg width="34" height="34" viewBox="0 0 34 34" fill="none" xmlns="http://www.w3.org/2000/svg">
<path opacity="0.2" d="M17.4961 33.9102C26.6088 33.9102 33.9961 26.5229 33.9961 17.4102C33.9961 8.29746 26.6088 0.910156 17.4961 0.910156C8.38339 0.910156 0.996094 8.29746 0.996094 17.4102C0.996094 26.5229 8.38339 33.9102 17.4961 33.9102Z" fill="#0293D6"/>
<path d="M10.8696 25.6669C11.5696 26.4643 12.4209 27.1148 13.3742 27.5805C14.3275 28.0464 15.3638 28.3182 16.4229 28.3803C17.6884 28.3133 18.8823 27.7725 19.7675 26.8658C21.5137 25.3703 23.3469 23.9796 25.2578 22.7008L26.3305 22.259C26.7723 22.0699 27.5297 21.6281 28.2237 20.8077C28.981 19.798 29.1073 18.7252 29.1073 18.3466C29.0233 17.1524 28.6321 16.0002 27.9712 15.002C26.2472 18.074 23.7763 20.6618 20.7871 22.5259C17.7979 24.39 14.387 25.4703 10.8696 25.6669Z" fill="white"/>
<path d="M13.2666 7.74513C13.7377 7.24755 14.3051 6.85106 14.9344 6.57982C15.5636 6.3086 16.2415 6.16831 16.9267 6.16748C17.3609 6.13842 17.7965 6.19599 18.2081 6.33684C18.6198 6.47766 18.9994 6.69897 19.3248 6.98786C21.1349 8.27024 23.2909 8.9743 25.5091 9.00726C26.0772 9.07037 27.213 9.25969 27.9703 10.2063C28.5381 10.9635 28.6012 11.7839 28.6012 12.1626C28.5505 13.1377 28.3372 14.0974 27.9703 15.0023L13.2666 7.74513Z" fill="#EBE638"/>
<path d="M10.8699 25.6672C10.3019 25.6041 9.54465 25.4148 8.66115 25.0363C7.77768 24.6576 6.70487 24.2159 6.01072 23.0169C5.56897 22.2596 5.50586 21.5023 5.50586 20.9975C5.52127 19.6586 5.8452 18.3413 6.45244 17.148C7.05661 15.6731 7.45989 14.1237 7.65146 12.5413L7.967 11.2792C8.15632 10.6481 8.28252 10.0171 8.72427 9.38601L9.41842 8.62875C10.5649 7.9079 11.9218 7.59651 13.2679 7.74527C11.4654 10.3237 10.307 13.2965 9.88983 16.4147C9.4726 19.5329 9.80867 22.7057 10.8699 25.6672Z" fill="#BAD147"/>
<path d="M13.2674 7.74512C13.2043 7.74512 16.6751 7.93443 18.8207 8.6917L20.5877 9.44899C19.8935 9.38588 15.4761 9.19656 12.1315 12.5412C7.9034 16.8324 9.29173 22.7013 9.35485 23.0168C8.37502 21.7841 7.88109 20.2348 7.96652 18.6624C8.04959 16.5755 8.56338 14.5284 9.47563 12.6496C10.3879 10.7708 11.6788 9.10103 13.2674 7.74512Z" fill="#78B650"/>
<path d="M21.7239 23.3325C22.9176 21.1623 23.4467 18.6887 23.2446 16.22C23.0426 13.7513 22.1186 11.3965 20.5879 9.44922C22.4158 9.75484 24.0972 10.6398 25.384 11.9735C26.1411 12.6045 27.0878 13.5511 27.9712 15.0025C26.7236 18.3169 24.5563 21.2066 21.7239 23.3325Z" fill="#2F8260"/>
<path d="M23.7438 12.2253C22.7342 10.5214 21.2827 9.76415 20.6516 9.44863C20.1468 9.32241 15.4138 8.56514 11.8168 12.036C8.91393 14.8126 8.72461 18.4097 8.72461 19.1038C8.73797 21.4821 9.53662 23.7892 10.9964 25.6669C12.8724 26.028 14.8 26.028 16.6759 25.6669C17.6225 25.4775 19.8312 25.0989 21.7244 23.4581C21.9769 23.2057 24.7534 20.6183 24.9427 16.5165C24.9427 15.8223 24.9427 14.0554 23.7438 12.2253ZM21.472 21.3756C20.886 22.0132 20.1739 22.5218 19.3808 22.8695C18.5878 23.217 17.7311 23.3961 16.8653 23.395C16.4866 23.395 13.9624 23.3319 12.1954 21.2494C11.943 20.9339 10.6809 19.4194 10.744 17.1475C10.8702 14.1185 13.2682 12.3515 13.7731 11.9729C14.2148 11.6573 15.2876 10.9632 16.8653 10.9001C17.2439 10.837 18.5691 10.7739 19.8943 11.5311C22.7971 13.1088 22.9233 16.8951 22.9233 17.1475C22.9233 17.8417 22.9233 19.7349 21.472 21.3756Z" fill="#085229"/>
</svg>
