<svg width="33" height="33" viewBox="0 0 33 33" fill="none" xmlns="http://www.w3.org/2000/svg">
<path opacity="0.2" d="M32.9104 16.4999C32.9104 25.5646 25.5622 32.913 16.4975 32.913C7.4328 32.913 0.0844727 25.5646 0.0844727 16.4999C0.0844727 7.43525 7.4328 0.0869141 16.4975 0.0869141C25.5621 0.0869141 32.9104 7.43525 32.9104 16.4999Z" fill="#00A478"/>
<path d="M14.8144 16.2125V13.3411H10.9199V10.8242H21.8026V13.3766H17.9082V16.2125H14.8144Z" fill="#00A478"/>
<path fill-rule="evenodd" clip-rule="evenodd" d="M9.24561 16.5319C9.24561 15.5748 12.3758 14.7949 16.2702 14.7949C20.1647 14.7949 23.2949 15.5748 23.2949 16.5319C23.2949 17.4891 20.1647 18.2689 16.2702 18.2689C12.3758 18.2689 9.24561 17.4891 9.24561 16.5319ZM22.7125 16.5319C22.4577 16.1774 20.3467 15.0785 16.2702 15.0785C12.1938 15.0785 10.0827 16.142 9.82796 16.5319C10.0827 16.8864 12.1938 17.4182 16.2702 17.4182C20.3831 17.4182 22.4577 16.8864 22.7125 16.5319Z" fill="#00A478"/>
<path d="M17.9084 17.099V15.1139C17.3989 15.0784 16.8529 15.043 16.307 15.043C15.7974 15.043 15.3242 15.043 14.8511 15.0784V17.0636C15.2878 17.0636 15.7974 17.099 16.307 17.099C16.8529 17.1345 17.3989 17.1345 17.9084 17.099Z" fill="#00A478"/>
<path d="M16.2703 18.2691C15.7608 18.2691 15.2876 18.2691 14.8145 18.2337V23.5156H17.8718V18.1982C17.3622 18.2337 16.8163 18.2691 16.2703 18.2691Z" fill="#00A478"/>
</svg>
