<svg width="34" height="33" viewBox="0 0 34 33" fill="none" xmlns="http://www.w3.org/2000/svg">
<circle opacity="0.2" cx="17.377" cy="16.5" r="16.5" fill="black"/>
<path d="M24.382 10.9959L22.1469 12.1364L11.3539 17.6422C11.3174 17.3635 11.299 17.0826 11.2989 16.8014C11.3004 15.6796 11.5945 14.5776 12.152 13.6046C12.7096 12.6316 13.5113 11.8213 14.4778 11.2541C15.4442 10.6869 16.5418 10.3824 17.6619 10.3708C18.782 10.3592 19.8857 10.6408 20.8637 11.1878L22.143 10.535L22.3338 10.4375C21.1619 9.58556 19.7776 9.07475 18.3339 8.96151C16.8902 8.84828 15.4434 9.13702 14.1533 9.79582C12.8632 10.4546 11.7801 11.4578 11.0237 12.6946C10.2673 13.9313 9.86707 15.3535 9.86722 16.8038C9.86722 17.0041 9.87481 17.2036 9.88999 17.4023C9.91126 17.6838 9.84894 17.9652 9.71087 18.2113C9.5728 18.4573 9.36516 18.657 9.11407 18.7851L8.43945 19.1296V20.7365L10.4256 19.7227L11.0688 19.3939L11.7026 19.0706L23.0807 13.2643L24.3593 12.6123L27.002 11.2633V9.65722L24.382 10.9959Z" fill="black"/>
<path d="M27.002 12.8711L12.3489 20.3433L11.0704 20.9969L8.43945 22.3395V23.9449L11.0523 22.6117L13.2874 21.4712L24.0915 15.9575C24.128 16.2381 24.1463 16.5208 24.1464 16.8038C24.1457 17.927 23.8517 19.0304 23.2936 20.0046C22.7355 20.9788 21.9327 21.7898 20.9648 22.3572C19.997 22.9246 18.8978 23.2286 17.7764 23.239C16.655 23.2494 15.5504 22.9659 14.5722 22.4166L14.4937 22.4583L13.1068 23.1662C14.2785 24.0181 15.6625 24.5291 17.106 24.6426C18.5494 24.7561 19.9961 24.4678 21.2862 23.8094C22.5763 23.1511 23.6595 22.1483 24.4163 20.912C25.173 19.6757 25.5737 18.2539 25.5742 16.8038C25.5742 16.6017 25.5663 16.3995 25.5514 16.1998C25.5302 15.9184 25.5924 15.6371 25.7303 15.3911C25.8683 15.1451 26.0757 14.9453 26.3266 14.817L27.002 14.4725V12.8711Z" fill="black"/>
</svg>
