<svg width="35" height="34" viewBox="0 0 35 34" fill="none" xmlns="http://www.w3.org/2000/svg">
<path opacity="0.2" d="M17.4376 33.2308C26.614 33.2308 34.053 25.7919 34.053 16.6154C34.053 7.43896 26.614 0 17.4376 0C8.26122 0 0.822266 7.43896 0.822266 16.6154C0.822266 25.7919 8.26122 33.2308 17.4376 33.2308Z" fill="#FF6B01"/>
<path fill-rule="evenodd" clip-rule="evenodd" d="M3.58398 25.5186H3.76611H10.3232V16.6152L17.6152 23.8096L24.9072 16.6152V25.5186H31.4648H31.647C33.2832 22.9453 34.231 19.8906 34.231 16.6152C34.231 16.5859 34.231 16.5557 34.231 16.5264C34.2212 18.3613 33.9072 20.0947 33.3398 21.7275H28.3604V8.03809L17.6152 18.668L6.87061 8.03809V21.7275H1.89111C1.66406 21.0742 1.47803 20.4053 1.33545 19.7207C1.12158 18.6924 1.00586 17.6279 1 16.5264C1 16.5557 1 16.5859 1 16.6152C1 19.8906 1.94775 22.9453 3.58398 25.5186Z" fill="#FF6B01"/>
</svg>
