<svg width="33" height="33" viewBox="0 0 33 33" fill="none" xmlns="http://www.w3.org/2000/svg">
<path opacity="0.2" d="M16.5 33C25.6127 33 33 25.6127 33 16.5C33 7.3873 25.6127 0 16.5 0C7.3873 0 0 7.3873 0 16.5C0 25.6127 7.3873 33 16.5 33Z" fill="#1276A7"/>
<path d="M18.4953 9.29453C17.4626 9.88244 16.8511 10.9441 16.8511 12.0636C16.8511 12.6515 17.0948 13.244 17.3997 13.7726C17.6434 14.2448 17.7628 15.0688 16.9125 15.4816C16.3057 15.8334 15.5119 15.5989 15.1489 15.0094C14.7857 14.5373 14.3598 14.0651 13.8112 13.7132C12.7785 13.1253 11.5602 13.1253 10.5275 13.7132C9.49467 14.3011 8.88477 15.3654 8.88477 16.4853C8.88477 17.6051 9.49153 18.6664 10.5272 19.2559C11.5599 19.8438 12.7782 19.8438 13.8109 19.2559C14.3596 18.9604 14.7854 18.4913 15.0873 17.9597C15.331 17.547 16.0006 17.0154 16.851 17.4876C17.4577 17.8394 17.6401 18.6086 17.3382 19.1965C17.0333 19.7281 16.851 20.3176 16.851 20.9055C16.851 22.0266 17.4577 23.0866 18.4952 23.6746C19.5279 24.2625 20.7461 24.2625 21.7789 23.6746C22.8117 23.0867 23.4232 22.025 23.4232 20.9055C23.4232 19.786 22.8149 18.7244 21.779 18.1349C21.2304 17.8394 20.6221 17.7221 19.954 17.7221C19.4054 17.7221 18.6776 17.3703 18.6776 16.4853C18.6776 15.7771 19.2262 15.2485 19.954 15.2485C20.5608 15.2485 21.2304 15.1312 21.779 14.8357C22.8117 14.2478 23.4232 13.1861 23.4232 12.0667C23.4232 10.9472 22.8149 9.88556 21.779 9.29758C21.2918 9.0021 20.685 8.88482 20.1366 8.88482C19.5911 8.88178 18.9796 9.0021 18.4956 9.29453" fill="#1276A7"/>
</svg>
