<svg width="24" height="18" viewBox="0 0 24 18" fill="none" xmlns="http://www.w3.org/2000/svg">
<path d="M15.9867 9.09886C13.7862 7.9229 11.6792 6.84179 9.52539 5.71303V12.4655C11.7918 11.2335 14.1807 10.1052 15.9961 9.09886H15.9867Z" fill="white"/>
<path d="M15.9867 9.09886C13.7862 7.9229 9.52539 5.71303 9.52539 5.71303L15.2061 9.53122C15.2066 9.53122 14.1713 10.1052 15.9867 9.09886Z" fill="#E8E0E0"/>
<path d="M9.93971 17.7513C5.36902 17.6672 3.8079 17.5915 2.84834 17.3938C2.19914 17.2624 1.63498 16.9708 1.22133 16.5478C0.901622 16.2276 0.647373 15.7392 0.450119 15.0615C0.280916 14.4969 0.215016 14.0271 0.121064 12.8796C-0.022758 10.2899 -0.0570437 8.17268 0.121064 5.80696C0.268003 4.50054 0.339246 2.94967 1.31528 2.04488C1.77613 1.62143 2.31224 1.34892 2.91424 1.23627C3.85465 1.05772 7.86119 0.916565 12.0089 0.916565C16.1472 0.916565 20.1627 1.05772 21.104 1.23627C21.856 1.37742 22.5613 1.80043 22.9754 2.34588C23.866 3.7467 23.8816 5.4886 23.9719 6.85112C24.0093 7.50033 24.0093 11.1867 23.9719 11.8359C23.8312 13.9892 23.7181 14.7511 23.3984 15.541C23.2007 16.0397 23.032 16.3029 22.7399 16.5945C22.2818 17.0433 21.6978 17.3419 21.0657 17.4503C17.1103 17.7478 13.7517 17.8123 9.93971 17.7513ZM15.9967 9.09884C13.7962 7.92289 11.6892 6.83242 9.53541 5.70366V12.4566C11.8018 11.2246 14.1911 10.0958 16.0061 9.08949L15.9967 9.09884Z" fill="#CD201F"/>
</svg>
